<?xml version="1.0" encoding="UTF-8" standalone="no"?>
<svg
   fill="black"
   viewBox="0 0 64 64"
   width="48px"
   height="48px"
   version="1.1"
   id="svg11441"
   xmlns="http://www.w3.org/2000/svg"
   xmlns:svg="http://www.w3.org/2000/svg">
  <defs
     id="defs11445" />
  <path
     d="m 32,-1e-6 C 49.672728,-10e-7 64.000001,14.327272 64.000001,32 64.000001,49.672728 49.672728,64.000001 32,64.000001 14.327272,64.000001 -1e-6,49.672728 -1e-6,32 -1e-6,14.327272 14.327272,-10e-7 32,-10e-7 Z m 22.045092,31.49091 c 1.554909,-3.895273 2.075636,-7.006546 2.075636,-9.770182 0,-0.264727 -0.03927,-0.482909 -0.048,-0.736 -1.6,-3.482182 -3.927273,-6.558546 -6.8,-9.038546 -2.256,0.408727 -3.792,2.504728 -3.792,4.753455 0,2.250182 1.301818,4.149818 2.682182,6.4 1.041454,1.815273 2.250181,4.149818 2.250181,7.52 0,2.340364 -0.690909,5.272728 -2.075636,8.816001 l -2.724364,9.099636 -9.857455,-29.323637 c 1.640728,-0.08727 3.121455,-0.260364 3.121455,-0.260364 1.467637,-0.174545 1.298909,-2.331636 -0.174545,-2.250182 0,0 -4.417455,0.347637 -7.268364,0.347637 -2.676364,0 -7.181091,-0.347637 -7.181091,-0.347637 -1.467637,-0.08727 -1.645091,2.16291 -0.171637,2.250182 0,0 1.389091,0.171637 2.862546,0.254546 l 4.244364,11.649455 -5.968001,17.905455 -9.933091,-29.549092 c 1.643637,-0.08727 3.121455,-0.260364 3.121455,-0.260364 1.467636,-0.174545 1.298909,-2.331636 -0.174546,-2.250182 0,0 -4.417454,0.347637 -7.268363,0.347637 -0.238546,0 -0.544,-0.0073 -0.813091,-0.01309 -1.057455,1.541818 -1.953455,3.198545 -2.6705459,4.949818 L 19.701818,55.445819 c 1.537454,0.808727 3.160727,1.467636 4.856727,1.966545 l 7.925819,-23.032728 8.257454,22.606547 c 1.905455,-0.667637 3.710546,-1.541819 5.390546,-2.608 z"
     id="path11439"
     style="stroke-width:1" />
</svg>
