<?xml version="1.0" encoding="UTF-8" standalone="no"?>
<svg
   fill="black"
   viewBox="0 0 64 64"
   width="48px"
   height="48px"
   version="1.1"
   id="svg2818"
   xmlns="http://www.w3.org/2000/svg"
   xmlns:svg="http://www.w3.org/2000/svg">
  <defs
     id="defs2822" />
  <path
     d="M 45.1632,0 C 62.632,0 64,1.3664 64,18.8368 V 45.1616 C 64,62.632 62.632,64 45.1632,64 H 18.8368 C 1.368,64 0,62.632 0,45.1632 V 18.8368 C 0,1.3664 1.368,0 18.8368,0 Z M 20.8464,49.6 V 23.5648 H 12.7552 V 49.6 Z M 16.8016,19.8416 c 2.6,0 4.7152,-2.1152 4.7152,-4.7184 0,-2.6 -2.1152,-4.7152 -4.7152,-4.7152 -2.6064,0 -4.7184,2.112 -4.7184,4.7152 0,2.6032 2.1088,4.7184 4.7184,4.7184 z M 51.2,49.6 V 35.32 c 0,-7.0112 -1.5136,-12.4032 -9.7072,-12.4032 -3.936,0 -6.5744,2.1584 -7.656,4.2048 H 33.728 V 23.5648 H 25.9664 V 49.6 h 8.0864 V 36.72 c 0,-3.3952 0.648,-6.6848 4.8576,-6.6848 4.1504,0 4.2048,3.8832 4.2048,6.904 V 49.6 Z"
     id="path2816"
     style="stroke-width:1" />
</svg>
