<?xml version="1.0" encoding="UTF-8" standalone="no"?>
<svg
   fill="black"
   viewBox="0 0 64 64"
   width="48px"
   height="48px"
   version="1.1"
   id="svg10530"
   xmlns="http://www.w3.org/2000/svg"
   xmlns:svg="http://www.w3.org/2000/svg">
  <defs
     id="defs10534" />
  <path
     d="m 32,-1e-6 C 49.672728,-10e-7 64.000001,14.327272 64.000001,32 64.000001,49.672728 49.672728,64.000001 32,64.000001 c -5.664,0 -10.980364,-1.477818 -15.595637,-4.059636 l -16.09163672,3.6 L 4.4087264,48.199273 C 1.6101809,43.447273 -1e-6,37.912727 -1e-6,32 -1e-6,14.327272 14.327272,-10e-7 32,-10e-7 Z m 15.797819,43.047274 c 0.658909,-1.850182 0.658909,-3.437091 0.453818,-3.770182 -0.199273,-0.322909 -0.72,-0.520727 -1.514182,-0.917818 -0.794182,-0.397091 -4.690909,-2.32 -5.421091,-2.581818 -0.72,-0.261819 -1.253818,-0.397091 -1.773091,0.397091 -0.533818,0.794181 -2.045091,2.581818 -2.517818,3.101091 -0.458182,0.533818 -0.917819,0.594909 -1.712,0.197818 -0.794182,-0.397091 -3.349819,-1.229091 -6.375273,-3.933091 -2.354909,-2.096 -3.944728,-4.690909 -4.40291,-5.482182 -0.458181,-0.792728 -0.05091,-1.226182 0.346182,-1.624728 0.360728,-0.346181 0.794182,-0.917818 1.192728,-1.376 0.384,-0.472727 0.519272,-0.794181 0.781091,-1.328 0.274909,-0.519272 0.136727,-0.992 -0.06109,-1.389091 -0.197819,-0.397091 -1.735273,-4.317091 -2.442182,-5.880727 -0.594909,-1.314909 -1.216,-1.352727 -1.786182,-1.365818 -0.461091,-0.02327 -0.994909,-0.02327 -1.514182,-0.02327 -0.533818,0 -1.389091,0.197818 -2.120727,0.992 -0.717091,0.794182 -2.765091,2.706909 -2.765091,6.613818 0,3.893819 2.829091,7.66691 3.226182,8.186182 0.397091,0.533819 5.482182,8.794183 13.546182,11.97091 6.685091,2.632727 8.050909,2.109091 9.514182,1.973818 1.448727,-0.125091 4.686546,-1.911273 5.345455,-3.76 z"
     id="path10528"
     style="stroke-width:1" />
</svg>
