<?xml version="1.0" encoding="UTF-8" standalone="no"?>
<svg
   fill="black"
   viewBox="0 0 64 64"
   width="48px"
   height="48px"
   version="1.1"
   id="svg6886"
   xmlns="http://www.w3.org/2000/svg"
   xmlns:svg="http://www.w3.org/2000/svg">
  <defs
     id="defs6890" />
  <path
     d="m 32,-1e-6 C 14.327272,-10e-7 -1e-6,14.327272 -1e-6,32 -1e-6,49.672728 14.327272,64.000001 32,64.000001 49.672728,64.000001 64.000001,49.672728 64.000001,32 64.000001,14.327272 49.672728,-10e-7 32,-10e-7 Z m 2.224432,12.78125 c 0.126778,-0.02304 0.258954,-0.0213 0.392045,0.0086 l 7.84375,1.565341 c 0.500364,-0.874182 1.40816,-1.462069 2.417615,-1.565341 1.758545,-0.190546 3.332182,1.080977 3.522727,2.838068 0.190546,1.758546 -1.080977,3.335023 -2.838068,3.525568 -1.758546,0.190546 -3.335023,-1.079523 -3.525568,-2.838068 l -6.846593,-1.440342 -2.076704,9.982956 c 4.398546,0.096 8.677387,1.456045 12.321023,3.9375 0.826182,-0.786909 1.917773,-1.259023 3.062501,-1.298296 2.584727,-0.08727 4.74775,1.925387 4.84375,4.502841 0.032,1.797818 -0.977955,3.451318 -2.585228,4.255682 0.032,0.468363 0.032,0.939273 0,1.409091 0,7.175273 -8.352319,12.997159 -18.65341,12.997159 -10.30109,0 -18.653409,-5.830614 -18.653409,-12.997159 -0.032,-0.469818 -0.032,-0.939273 0,-1.409091 -0.469818,-0.206546 -0.89059,-0.501932 -1.255683,-0.84375 -1.88509,-1.765818 -1.973204,-4.724454 -0.207386,-6.602272 1.765819,-1.885091 4.724456,-1.973205 6.602274,-0.207388 3.690182,-2.497455 8.026295,-3.866227 12.480114,-3.9375 l 2.363636,-11.102272 v -0.0171 c 0.08946,-0.405818 0.412296,-0.695068 0.792614,-0.764205 z M 24.542614,32 c -1.768728,0 -3.201705,1.432977 -3.201705,3.201705 0,1.768727 1.434432,3.201705 3.201705,3.201705 1.768727,0 3.201704,-1.434432 3.201704,-3.201705 C 27.744318,33.432977 26.309886,32 24.542614,32 Z m 14.821023,0 c -1.767273,0 -3.200251,1.432977 -3.201705,3.201705 0,1.768727 1.434432,3.201705 3.201705,3.201705 1.768727,0 3.201704,-1.434432 3.201704,-3.201705 C 42.565341,33.432977 41.130909,32 39.363637,32 Z M 24.78409,42.588069 c -0.194,0 -0.389023,0.0651 -0.548295,0.196022 -0.366546,0.302545 -0.421864,0.852205 -0.119317,1.21875 2.274909,1.710546 5.061091,2.585183 7.909091,2.46591 2.848001,0.119273 5.631342,-0.755364 7.906251,-2.46591 v 0.12784 c 0.350545,-0.343273 0.358864,-0.91366 0.01705,-1.264205 -0.341818,-0.350545 -0.9165,-0.358864 -1.267046,-0.01705 -1.949091,1.392 -4.304886,2.075409 -6.69034,1.948864 -2.385455,0.110545 -4.731887,-0.606205 -6.656251,-2.014205 -0.162909,-0.130909 -0.357136,-0.196022 -0.551137,-0.196022 z"
     id="path6884"
     style="stroke-width:1" />
</svg>
