<?xml version="1.0" encoding="UTF-8" standalone="no"?>
<svg
   fill="black"
   viewBox="0 0 64 64"
   width="48px"
   height="48px"
   version="1.1"
   id="svg9411"
   xmlns="http://www.w3.org/2000/svg"
   xmlns:svg="http://www.w3.org/2000/svg">
  <defs
     id="defs9415" />
  <path
     d="m 62.999497,12.772806 c -1.705007,2.54847 -3.863393,4.78823 -6.349862,6.583655 0.02325,0.546378 0.03617,1.094047 0.03617,1.645591 0,16.808537 -12.790143,36.190086 -36.187502,36.190086 -7.184284,0 -16.5463276,-2.516178 -19.4977997,-5.713068 0.9971713,0.118834 2.0098427,0.178251 3.0354308,0.178251 5.9610696,0 11.4455119,-2.034385 15.7971579,-5.445692 C 14.26727,46.109586 9.5694557,42.429611 7.9509901,37.376587 c 2.5316789,0.397835 5.7440689,-0.219584 5.7440689,-0.219584 0,0 -9.9458802,-1.707591 -10.2029231,-12.631267 2.8752634,1.667549 5.7608598,1.590049 5.7608598,1.590049 0,0 -5.736318,-3.531433 -5.6562343,-10.585258 C 3.6445534,11.370049 5.3159778,9.1328724 5.3159778,9.1328724 16.184112,22.515893 31.534351,22.424184 31.534351,22.424184 c 0,0 -0.329377,-1.90005 -0.329377,-2.897222 0,-7.022824 5.693693,-12.7191004 12.719101,-12.7191004 3.658017,0 6.963408,1.5448405 9.283252,4.0183934 2.899805,-0.572211 5.622651,-1.6313823 8.079412,-3.0883891 -1.109546,4.4433541 -5.591651,7.0370321 -5.591651,7.0370321 0,0 3.834977,-0.42496 7.304409,-2.002092 z"
     id="path9409"
     style="stroke-width:1" />
</svg>
