<?xml version="1.0" encoding="UTF-8" standalone="no"?>
<svg
   fill="black"
   viewBox="0 0 64 64"
   width="48px"
   height="48px"
   version="1.1"
   id="svg12248"
   xmlns="http://www.w3.org/2000/svg"
   xmlns:svg="http://www.w3.org/2000/svg">
  <defs
     id="defs12252" />
  <path
     d="m 60.702666,12.569333 c 2.915999,3 3.297333,7.766667 3.297333,19.430667 0,11.663999 -0.381334,16.430666 -3.297333,19.430666 -2.916,2.998666 -5.953334,3.236 -28.702666,3.236 -22.7493329,0 -25.7866661,-0.237334 -28.702666,-3.236 C 0.38133402,48.430666 7e-7,43.663999 7e-7,32 7e-7,20.336 0.38133402,15.569333 3.297334,12.569333 6.2133339,9.5693338 9.2506671,9.3333338 32,9.3333338 c 22.749332,0 25.786666,0.2373333 28.702666,3.2359992 z M 26.6,41.889333 42.794666,32.505333 26.6,23.268 Z"
     id="path12246"
     style="stroke-width:1" />
</svg>
