<?xml version="1.0" encoding="UTF-8" standalone="no"?>
<svg
   fill="black"
   viewBox="0 0 64 64"
   width="48px"
   height="48px"
   version="1.1"
   id="svg1412"
   xmlns="http://www.w3.org/2000/svg"
   xmlns:svg="http://www.w3.org/2000/svg">
  <defs
     id="defs1416" />
  <path
     d="m 32,0.786908 c 17.672728,0 32.000001,14.327273 32.000001,32.000001 0,14.208 -9.264,26.247274 -22.078546,30.423274 0.0029,-0.01164 0.0087,-0.03055 0.0087,-0.03055 0,0 -2.16,-1.012363 -2.113454,-2.818909 0.05091,-1.988364 0,-6.626909 0,-8.330182 0,-2.923636 -1.850182,-4.994909 -1.850182,-4.994909 0,0 14.512,0.162909 14.512,-15.320728 0,-5.973818 -3.122909,-9.083637 -3.122909,-9.083637 0,0 1.640727,-6.378182 -0.567273,-9.083636 -2.474182,-0.267637 -6.907636,2.365091 -8.8,3.595636 0,0 -2.999273,-1.230545 -7.988364,-1.230545 -4.989091,0 -7.988364,1.230545 -7.988364,1.230545 -1.892364,-1.230545 -6.324364,-3.863273 -8.8,-3.595636 -2.208,2.705454 -0.567273,9.083636 -0.567273,9.083636 0,0 -3.122909,3.108364 -3.122909,9.083637 0,15.483637 14.512,15.320728 14.512,15.320728 0,0 -1.461818,1.652363 -1.781818,4.081454 -1.012364,0.343273 -2.503273,0.768 -3.707636,0.768 -3.149091,0 -5.544728,-3.061818 -6.423273,-4.477091 -0.865455,-1.396363 -2.64,-2.568727 -4.2952731,-2.568727 -1.0894546,0 -1.6218183,0.545455 -1.6218183,1.168 0,0.622546 1.5272728,1.057455 2.5352724,2.212364 2.125091,2.434909 2.087273,7.909818 9.659637,7.909818 0.821818,0 2.500364,-0.202182 3.764364,-0.372363 -0.0073,1.723636 -0.01018,3.543272 0.01745,4.606545 0.04509,1.806546 -2.113454,2.818909 -2.113454,2.818909 0,0 0.0058,0.01745 0.0087,0.03055 C 9.2639993,59.034183 -10e-7,46.994909 -10e-7,32.786909 -10e-7,15.114181 14.327272,0.786908 32,0.786908 Z"
     id="path1410"
     style="stroke-width:1" />
</svg>
