<?xml version="1.0" encoding="UTF-8" standalone="no"?>
<svg
   fill="black"
   viewBox="0 0 64 64"
   width="48px"
   height="48px"
   version="1.1"
   id="svg9020"
   xmlns="http://www.w3.org/2000/svg"
   xmlns:svg="http://www.w3.org/2000/svg">
  <defs
     id="defs9024" />
  <path
     d="m 19.758378,29.667157 h -4.708227 c -1.215824,0 -2.199735,-0.985283 -2.199735,-2.199734 v -8.103201 c 0,-1.331093 0.832963,-2.508493 2.088581,-2.951733 3.053281,-1.078597 8.469595,-4.284199 9.362937,-13.5455878 0.131737,-1.3667718 1.250129,-2.42890179 2.623762,-2.42890179 h 8.77012 c 1.196611,0 2.1668,0.97018849 2.1668,2.16679999 V 15.369571 h 8.875783 c 1.215823,0 2.199735,0.985283 2.199735,2.199734 v 9.898118 c 0,1.215823 -0.985284,2.199734 -2.199735,2.199734 H 37.862616 V 43.96886 c 0,3.249514 1.569866,4.494155 3.064258,4.494155 1.1774,0 3.21658,-0.514598 4.716461,-0.945488 1.060758,-0.304642 2.09407,0.102919 2.535938,1.311881 0.441868,1.208962 2.806274,8.004398 2.806274,8.004398 0.432262,1.233663 -0.01098,2.594945 -1.07997,3.348317 -2.024084,1.427151 -5.829364,3.379878 -11.499546,3.379878 -8.80717,0 -18.647653,-3.913688 -18.647653,-18.517288 0,-2.90096 0,-15.377556 0,-15.377556 z"
     id="path9018"
     style="stroke-width:0.999999" />
</svg>
