<?xml version="1.0" encoding="UTF-8" standalone="no"?>
<svg
   fill="#000000"
   viewBox="0 0 64 64"
   width="48"
   height="48"
   version="1.1"
   id="svg5555"
   xmlns="http://www.w3.org/2000/svg"
   xmlns:svg="http://www.w3.org/2000/svg">
  <defs
     id="defs5559" />
  <path
     d="M 36.923077,4.9230778 C 36.923077,2.2000009 34.723077,10e-7 32,10e-7 c -2.723077,0 -4.923077,2.1999999 -4.923077,4.9230768 V 27.076923 H 4.9230778 C 2.2000009,27.076923 1e-6,29.276923 1e-6,32 c 0,2.723077 2.1999999,4.923077 4.9230768,4.923077 H 27.076923 v 22.153846 c 0,2.723076 2.2,4.923076 4.923077,4.923076 2.723077,0 4.923077,-2.2 4.923077,-4.923076 V 36.923077 h 22.153846 c 2.723076,0 4.923076,-2.2 4.923076,-4.923077 0,-2.723077 -2.2,-4.923077 -4.923076,-4.923077 H 36.923077 Z"
     id="path5553"
     style="stroke-width:1" />
</svg>
