<?xml version="1.0" encoding="UTF-8" standalone="no"?>
<svg
   fill="black"
   viewBox="0 0 64 64"
   width="48px"
   height="48px"
   version="1.1"
   id="svg3417"
   xmlns="http://www.w3.org/2000/svg"
   xmlns:svg="http://www.w3.org/2000/svg">
  <defs
     id="defs3421" />
  <path
     d="M 45.1632,0 C 62.6336,0 64,1.3664 64,18.8368 V 45.1616 C 64,62.632 62.6336,64 45.1632,64 H 18.8368 C 1.3664,64 0,62.632 0,45.1632 V 18.8368 C 0,1.3664 1.3664,0 18.8368,0 Z M 22.856,43.856 c 6.5472,0 11.856,-5.3088 11.856,-11.856 0,-6.5472 -5.3088,-11.856 -11.856,-11.856 C 16.3088,20.144 11,25.4528 11,32 c 0,6.5472 5.3088,11.856 11.856,11.856 z m 18.9088,-0.5728 c 3.2416,0 5.8672,-5.0512 5.8672,-11.2832 0,-6.232 -2.6272,-11.2832 -5.8672,-11.2832 -3.24,0 -5.8672,5.0512 -5.8672,11.2832 0,6.2304 2.6272,11.2832 5.8672,11.2832 z M 50.88,42.0784 c 1.1264,0 2.04,-4.512 2.04,-10.0784 0,-5.5664 -0.9136,-10.0784 -2.04,-10.0784 -1.128,0 -2.0416,4.512 -2.0416,10.0784 0,5.5664 0.9152,10.0784 2.0416,10.0784 z"
     id="path3415"
     style="stroke-width:1" />
</svg>
