<?xml version="1.0" encoding="UTF-8" standalone="no"?>
<svg
   fill="black"
   viewBox="0 0 64 64"
   width="48px"
   height="48px"
   version="1.1"
   id="svg8317"
   xmlns="http://www.w3.org/2000/svg"
   xmlns:svg="http://www.w3.org/2000/svg">
  <defs
     id="defs8321" />
  <path
     d="M 45.1632,0 C 62.6336,0 64,1.3664 64,18.8368 V 45.1616 C 64,62.632 62.6336,64 45.1632,64 H 18.8368 C 1.368,64 0,62.632 0,45.1632 V 18.8368 C 0,1.3664 1.368,0 18.8368,0 Z m 4.008,28.3792 v -6.7136 c 0,0 -3.5488,0.0176 -6.5456,-2.728 -2.5184,-2.3072 -2.728,-6.6288 -2.728,-6.6288 H 33.184 c 0,0 0,22.9088 0,26.56 0,3.6496 -3.176,5.5392 -5.4544,5.5392 -1.7168,0 -5.6224,-1.3456 -5.6224,-5.5808 0,-4.4448 4.4896,-5.5808 5.664,-5.5808 1.1744,0 1.6368,0.2512 1.6368,0.2512 v -7.0864 c 0,0 -1.0912,-0.104 -1.888,-0.1312 -6.776,-0.2288 -12.3776,5.8512 -12.3776,12.5456 0,5.656 4.424,12.504 12.504,12.504 8.6064,0 12.5456,-7.1776 12.5456,-12.4624 0,-3.8608 0,-13.1744 0,-13.1744 0,0 2.4752,1.384 4.4896,2.0144 2.0144,0.6304 4.4896,0.672 4.4896,0.672 z"
     id="path8315"
     style="stroke-width:1" />
</svg>
