<?xml version="1.0" encoding="UTF-8" standalone="no"?>
<svg
   fill="black"
   viewBox="0 0 64 64"
   width="48px"
   height="48px"
   version="1.1"
   id="svg289"
   xmlns="http://www.w3.org/2000/svg"
   xmlns:svg="http://www.w3.org/2000/svg">
  <defs
     id="defs293" />
  <path
     d="M 45.163197,-2.113806e-8 C 62.633596,-2.113806e-8 63.999996,1.3663999 63.999996,18.836799 v 26.324799 c 0,17.470399 -1.3664,18.838398 -18.836799,18.838398 H 41.820798 V 40.700797 h 8.214399 l 1.2912,-9.231999 h -9.505599 c 0,0 -0.0144,-5.404799 0,-6.753599 0.0272,-2.638401 2.2304,-3.9728 4.1232,-3.9536 1.8928,0.0192 5.814399,0.0064 5.814399,0.0064 V 12.2608 c 0,0 -3.3968,-0.440001 -6.9584,-0.476801 -2.993599,-0.0304 -6.299199,0.779201 -8.966399,3.4672 -2.7136,2.7344 -3.1408,6.8064 -3.1936,11.7824 -0.0144,1.44 0,4.4352 0,4.4352 h -8.0384 v 9.231999 h 8.0384 V 63.999996 H 18.838399 C 1.3663999,63.999996 -2.113806e-8,62.631997 -2.113806e-8,45.163197 V 18.836799 C -2.113806e-8,1.3663999 1.3663999,-2.1138063e-8 18.836799,-2.1138063e-8 Z"
     id="path287"
     style="stroke-width:0.999999" />
</svg>
