<?xml version="1.0" encoding="UTF-8" standalone="no"?>
<svg
   fill="#000000"
   viewBox="0 0 64 64"
   width="48"
   height="48"
   version="1.1"
   id="svg12847"
   xmlns="http://www.w3.org/2000/svg"
   xmlns:svg="http://www.w3.org/2000/svg">
  <defs
     id="defs12851" />
  <path
     d="M 20.9,2.2125 20,4 H 8 C 5.7875,4 4,5.7875 4,8 c 0,2.2125 1.7875,4 4,4 h 48 c 2.2125,0 4,-1.7875 4,-4 C 60,5.7875 58.2125,4 56,4 H 44 L 43.1,2.2125 C 42.425,0.85 41.0375,0 39.525,0 H 24.475 C 22.9625,0 21.575,0.85 20.9,2.2125 Z M 56,16 H 8 l 2.65,42.375 C 10.85,61.5375 13.475,64 16.6375,64 h 30.725 C 50.525,64 53.15,61.5375 53.35,58.375 Z"
     id="path12845"
     style="stroke-width:1" />
</svg>
