<?xml version="1.0" encoding="UTF-8" standalone="no"?>
<svg
   fill="black"
   viewBox="0 0 64 64"
   width="48px"
   height="48px"
   version="1.1"
   id="svg2219"
   xmlns="http://www.w3.org/2000/svg"
   xmlns:svg="http://www.w3.org/2000/svg">
  <defs
     id="defs2223" />
  <path
     d="M 31.712499,0 C 2.3012992,0 0,2.3028992 0,31.712499 v 0.575002 C 0,61.697101 2.3013008,64 31.712499,64 h 0.575002 C 61.698701,64 64,61.697101 64,32.287501 V 32 C 64,2.3232 61.6768,0 32,0 Z M 51.190626,9.6 C 52.958626,9.5952 54.3952,11.022626 54.4,12.790626 54.4048,14.558626 52.977374,15.9952 51.209374,16 49.441374,16.0048 48.0048,14.577374 48,12.809374 47.9952,11.041374 49.422626,9.6048 51.190626,9.6 Z M 31.962499,16 C 40.797699,15.9792 47.9792,23.127301 48,31.962499 48.0208,40.797699 40.872699,47.9792 32.037501,48 23.202299,48.0208 16.0208,40.872699 16,32.037501 15.9792,23.202299 23.127301,16.0208 31.962499,16 Z m 0.01568,6.4 C 26.675725,22.4128 22.3872,26.7226 22.4,32.025 22.4128,37.3258 26.721075,41.6128 32.021875,41.6 37.324275,41.5872 41.6128,37.278925 41.6,31.978125 41.5872,26.675725 37.278925,22.3872 31.978125,22.4 Z"
     id="path2217"
     style="stroke-width:1" />
</svg>
