<?xml version="1.0" encoding="UTF-8" standalone="no"?>
<svg
   id="svg8"
   version="1.1"
   viewBox="0 0 66.145831 19.843753"
   height="75"
   width="250"
   xmlns="http://www.w3.org/2000/svg"
   xmlns:svg="http://www.w3.org/2000/svg"
   xmlns:rdf="http://www.w3.org/1999/02/22-rdf-syntax-ns#"
   xmlns:cc="http://creativecommons.org/ns#"
   xmlns:dc="http://purl.org/dc/elements/1.1/">
  <defs
     id="defs2" />
  <metadata
     id="metadata5">
    <rdf:RDF>
      <cc:Work
         rdf:about="">
        <dc:format>image/svg+xml</dc:format>
        <dc:type
           rdf:resource="http://purl.org/dc/dcmitype/StillImage" />
      </cc:Work>
    </rdf:RDF>
  </metadata>
  <g
     aria-label="Argentinaprograma"
     id="text3150"
     style="font-size:7.65528px;line-height:1;font-family:'Encode Sans';-inkscape-font-specification:'Encode Sans, @wght=700,wdth=100.0';font-variation-settings:'wdth' 100, 'wght' 700;fill:#31bbec;stroke-width:0.264583">
    <path
       d="m 28.575001,8.3421049 1.829612,-5.6649073 h 1.810473 l 1.829612,5.6649073 H 32.819854 L 31.235211,3.2207225 h 0.130139 l -1.580815,5.1213824 z m 1.270776,-1.5119178 0.267935,-0.9913588 h 2.388447 l 0.264108,0.9913588 z"
       id="path27419" />
    <path
       d="M 34.553777,8.3421049 V 4.1546667 h 0.999014 l 0.09186,0.5396972 h 0.06124 q 0.176071,-0.3100388 0.466972,-0.4516615 0.290901,-0.1454503 0.639216,-0.1454503 0.09569,0 0.183727,0.00766 0.08803,0.00766 0.156933,0.022966 v 1.1023603 q -0.09569,-0.019138 -0.206693,-0.022966 -0.107174,-0.00766 -0.206692,-0.00766 -0.179899,0 -0.363626,0.045932 -0.183727,0.042104 -0.34066,0.1339674 -0.156933,0.088036 -0.264107,0.2181755 v 2.7444179 z"
       id="path27421" />
    <path
       d="m 39.116805,10.102819 q -0.333005,0 -0.696631,-0.0421 -0.363626,-0.03828 -0.704286,-0.1301395 V 8.9774932 q 0.352143,0.095691 0.685148,0.1416226 0.333005,0.045932 0.620078,0.045932 0.612422,0 0.888012,-0.2296584 0.279418,-0.2296584 0.279418,-0.765528 V 7.894271 h -0.05741 q -0.179899,0.2220031 -0.455489,0.3483153 -0.271762,0.1263121 -0.627733,0.1263121 -0.428696,0 -0.799977,-0.2143479 Q 37.876649,7.9363751 37.646991,7.4885412 37.42116,7.0368797 37.42116,6.3325939 q 0,-1.0832222 0.589457,-1.6611958 0.589456,-0.5818013 1.787508,-0.5818013 0.267934,0 0.55118,0.026794 0.287073,0.026794 0.558835,0.08038 0.271763,0.049759 0.501421,0.1263122 V 7.947858 q 0,1.1368091 -0.566491,1.6458852 -0.56649,0.5090758 -1.726265,0.5090758 z m 0.394247,-2.7252794 q 0.183726,0 0.363625,-0.061242 0.1799,-0.06507 0.313867,-0.191382 V 5.065645 q -0.09952,-0.022966 -0.229658,-0.038276 -0.126313,-0.015311 -0.267935,-0.015311 -0.505249,0 -0.773184,0.2832453 -0.267934,0.2794178 -0.267934,0.9339442 0,0.4440062 0.107174,0.6966305 0.107173,0.2487966 0.298555,0.3521429 0.19521,0.099519 0.45549,0.099519 z"
       id="path27423" />
    <path
       d="m 44.429568,8.4224854 q -0.788494,0 -1.29757,-0.2258308 -0.509076,-0.2258308 -0.757873,-0.7081134 -0.244968,-0.4822827 -0.244968,-1.243983 0,-0.6928029 0.22583,-1.1750855 0.229659,-0.4822827 0.662182,-0.7310793 0.436351,-0.2487966 1.056429,-0.2487966 0.593284,0 0.999014,0.2526243 0.40573,0.2487966 0.612422,0.7387345 0.206693,0.4899379 0.206693,1.201879 v 0.3176941 h -3.06594 V 5.9000706 h 2.12434 l -0.195209,0.072725 q 0,-0.4133851 -0.07655,-0.6583541 -0.07655,-0.2449689 -0.233486,-0.3483152 -0.153106,-0.1033463 -0.382764,-0.1033463 -0.233486,0 -0.394247,0.1033463 -0.156933,0.1033463 -0.241141,0.3483152 -0.08038,0.2411414 -0.08038,0.6545265 V 6.458906 q 0,0.3865916 0.111002,0.6162501 0.114829,0.2258307 0.386591,0.3253494 0.27559,0.099519 0.757873,0.099519 0.244969,0 0.512904,-0.034449 0.271762,-0.038276 0.543525,-0.099519 v 0.914806 q -0.333005,0.076553 -0.635389,0.1071739 -0.298556,0.034449 -0.593284,0.034449 z"
       id="path27425" />
    <path
       d="M 46.565396,8.3421049 V 4.1546667 h 1.00667 l 0.08038,0.424868 h 0.05741 q 0.233486,-0.2373136 0.547352,-0.3636258 0.313867,-0.1263121 0.68132,-0.1263121 0.413385,0 0.734907,0.1645885 0.325349,0.1607609 0.509076,0.5243867 0.183727,0.3597982 0.183727,0.9530824 V 8.3421049 H 49.145226 V 5.8082072 q 0,-0.3789364 -0.156934,-0.5243867 -0.156933,-0.1454503 -0.432523,-0.1454503 -0.137795,0 -0.279418,0.038276 -0.137795,0.034449 -0.267934,0.1110015 -0.126313,0.076553 -0.225831,0.191382 v 2.8630748 z"
       id="path27427" />
    <path
       d="m 53.106833,8.4186577 q -0.757873,0 -1.16743,-0.3751087 -0.40573,-0.3789364 -0.40573,-1.1980514 V 4.1546667 l 0.222003,-1.4774691 h 0.995186 v 3.976918 q 0,0.4325234 0.160761,0.5971119 0.164589,0.1645885 0.528215,0.1645885 0.09952,0 0.202864,-0.011483 0.107174,-0.015311 0.237314,-0.038276 V 8.330622 q -0.164588,0.034449 -0.371281,0.061242 -0.202865,0.026794 -0.401902,0.026794 z M 50.852353,5.1154043 V 4.1546667 h 3.00087 v 0.9607376 z"
       id="path27429" />
    <path
       d="M 54.503049,8.3421049 V 4.1546667 h 1.221017 v 4.1874382 z m 0.608595,-4.796033 q -0.382764,0 -0.570319,-0.1684161 -0.183726,-0.1684162 -0.183726,-0.4669721 0,-0.3062112 0.183726,-0.4707998 0.187555,-0.1684161 0.570319,-0.1684161 0.386591,0 0.570318,0.1684161 0.183727,0.1645886 0.183727,0.4707998 0,0.2985559 -0.183727,0.4669721 -0.183727,0.1684161 -0.570318,0.1684161 z"
       id="path27431" />
    <path
       d="M 56.635043,8.3421049 V 4.1546667 h 1.006669 l 0.08038,0.424868 h 0.05741 q 0.233486,-0.2373136 0.547352,-0.3636258 0.313867,-0.1263121 0.68132,-0.1263121 0.413385,0 0.734907,0.1645885 0.325349,0.1607609 0.509076,0.5243867 0.183727,0.3597982 0.183727,0.9530824 V 8.3421049 H 59.214873 V 5.8082072 q 0,-0.3789364 -0.156934,-0.5243867 -0.156933,-0.1454503 -0.432523,-0.1454503 -0.137795,0 -0.279418,0.038276 -0.137795,0.034449 -0.267935,0.1110015 -0.126312,0.076553 -0.22583,0.191382 v 2.8630748 z"
       id="path27433" />
    <path
       d="m 62.456885,8.4186577 q -0.643043,0 -1.002841,-0.3330047 -0.355971,-0.3368323 -0.355971,-0.8765295 0,-0.5932843 0.409557,-0.9262889 0.413386,-0.3330047 1.332019,-0.394247 l 0.880357,-0.072725 0.13014,0.6736646 -0.888012,0.072725 q -0.352143,0.026794 -0.509076,0.1607609 -0.153106,0.1339674 -0.153106,0.3674534 0,0.2296584 0.141623,0.3559705 0.141622,0.1224845 0.413385,0.1224845 0.168416,0 0.344487,-0.057415 0.176072,-0.061242 0.321522,-0.2066925 V 5.7737584 q 0,-0.287073 -0.09569,-0.4516615 -0.09186,-0.1645885 -0.302383,-0.233486 -0.206693,-0.072725 -0.555008,-0.072725 -0.241142,0 -0.547353,0.042104 -0.306211,0.038276 -0.585629,0.1263122 V 4.2656683 q 0.306212,-0.088036 0.669837,-0.1301398 0.367454,-0.045932 0.68132,-0.045932 0.66601,0 1.090878,0.1645885 0.428695,0.1645886 0.63156,0.5511802 0.202865,0.382764 0.202865,1.0449457 v 2.4917937 h -1.002841 l -0.08421,-0.4172128 h -0.05741 Q 63.379346,8.181344 63.088446,8.3000009 62.797545,8.4186577 62.456885,8.4186577 Z"
       id="path27435" />
    <path
       d="m 28.976903,17.681547 v -5.8716 h 1.025808 l 0.07272,0.447834 h 0.05741 q 0.179899,-0.233486 0.459317,-0.371281 0.283245,-0.141623 0.654527,-0.141623 0.463144,0 0.853563,0.21052 0.39042,0.21052 0.623906,0.669837 0.237313,0.455489 0.237313,1.198051 0,0.73108 -0.260279,1.232501 -0.256452,0.50142 -0.765528,0.7617 -0.505249,0.256452 -1.255466,0.256452 -0.126312,0 -0.252624,-0.01148 -0.122485,-0.0077 -0.233486,-0.01914 v 1.63823 z m 1.7033,-2.533898 q 0.528214,0 0.792321,-0.283245 0.264107,-0.283246 0.264107,-0.945428 0,-0.459316 -0.107173,-0.715768 -0.107174,-0.256452 -0.298556,-0.359798 -0.191382,-0.103347 -0.444007,-0.103347 -0.187554,0 -0.375108,0.0689 -0.183727,0.06507 -0.317694,0.214348 v 2.074581 q 0.103346,0.01914 0.233486,0.03445 0.130139,0.01531 0.252624,0.01531 z"
       id="path27437" />
    <path
       d="m 33.684898,15.997385 v -4.187438 h 0.999014 l 0.09186,0.539697 h 0.06124 q 0.176071,-0.310039 0.466972,-0.451661 0.290901,-0.145451 0.639216,-0.145451 0.09569,0 0.183727,0.0077 0.08803,0.0077 0.156933,0.02297 v 1.102361 q -0.09569,-0.01914 -0.206693,-0.02297 -0.107174,-0.0077 -0.206692,-0.0077 -0.179899,0 -0.363626,0.04593 -0.183727,0.0421 -0.34066,0.133968 -0.156933,0.08803 -0.264107,0.218175 v 2.744418 z"
       id="path27439" />
    <path
       d="m 38.592414,16.077765 q -0.627733,0 -1.08705,-0.237313 -0.455489,-0.241142 -0.704286,-0.719597 -0.248796,-0.482282 -0.248796,-1.205706 0,-0.731079 0.241141,-1.213362 0.244969,-0.482283 0.700458,-0.719596 0.459317,-0.237314 1.098533,-0.237314 0.639216,0 1.094705,0.241141 0.459317,0.237314 0.700458,0.719597 0.244969,0.478455 0.244969,1.201879 0,0.727251 -0.248797,1.209534 -0.248796,0.482282 -0.708113,0.723424 -0.455489,0.237313 -1.083222,0.237313 z m 0,-0.926288 q 0.256452,0 0.436351,-0.111002 0.183727,-0.111002 0.279418,-0.378936 0.09569,-0.271763 0.09569,-0.742563 0,-0.482282 -0.09569,-0.754045 -0.09569,-0.271762 -0.279418,-0.382764 -0.179899,-0.114829 -0.436351,-0.114829 -0.256452,0 -0.440179,0.111002 -0.179899,0.111001 -0.27559,0.382764 -0.09569,0.267935 -0.09569,0.742562 0,0.482283 0.09569,0.754045 0.09569,0.271762 0.27559,0.382764 0.183727,0.111002 0.440179,0.111002 z"
       id="path27441" />
    <path
       d="m 42.922236,17.758099 q -0.333005,0 -0.69663,-0.0421 -0.363626,-0.03828 -0.704286,-0.130139 v -0.953083 q 0.352143,0.09569 0.685147,0.141623 0.333005,0.04593 0.620078,0.04593 0.612422,0 0.888013,-0.229659 0.279417,-0.229658 0.279417,-0.765528 v -0.27559 h -0.05741 q -0.179899,0.222003 -0.455489,0.348315 -0.271763,0.126313 -0.627733,0.126313 -0.428696,0 -0.799977,-0.214348 -0.371281,-0.218176 -0.60094,-0.66601 -0.22583,-0.451661 -0.22583,-1.155947 0,-1.083222 0.589456,-1.661196 0.589457,-0.581801 1.787508,-0.581801 0.267935,0 0.55118,0.02679 0.287073,0.02679 0.558836,0.08038 0.271762,0.04976 0.50142,0.126312 v 3.624775 q 0,1.136809 -0.56649,1.645885 -0.566491,0.509076 -1.726266,0.509076 z m 0.394247,-2.725279 q 0.183727,0 0.363626,-0.06124 0.179899,-0.06507 0.313866,-0.191382 v -2.05927 q -0.09952,-0.02297 -0.229658,-0.03828 -0.126312,-0.01531 -0.267935,-0.01531 -0.505248,0 -0.773183,0.283246 -0.267935,0.279417 -0.267935,0.933944 0,0.444006 0.107174,0.69663 0.107174,0.248797 0.298556,0.352143 0.195209,0.09952 0.455489,0.09952 z"
       id="path27443" />
    <path
       d="m 46.12597,15.997385 v -4.187438 h 0.999014 l 0.09186,0.539697 h 0.06124 q 0.176071,-0.310039 0.466972,-0.451661 0.2909,-0.145451 0.639216,-0.145451 0.09569,0 0.183726,0.0077 0.08804,0.0077 0.156933,0.02297 v 1.102361 q -0.09569,-0.01914 -0.206692,-0.02297 -0.107174,-0.0077 -0.206693,-0.0077 -0.179899,0 -0.363625,0.04593 -0.183727,0.0421 -0.34066,0.133968 -0.156934,0.08803 -0.264108,0.218175 v 2.744418 z"
       id="path27445" />
    <path
       d="m 50.231122,16.073938 q -0.643044,0 -1.002842,-0.333005 -0.35597,-0.336832 -0.35597,-0.876529 0,-0.593285 0.409557,-0.926289 0.413385,-0.333005 1.332019,-0.394247 l 0.880357,-0.07273 0.13014,0.673664 -0.888013,0.07273 q -0.352142,0.02679 -0.509076,0.160761 -0.153105,0.133968 -0.153105,0.367454 0,0.229658 0.141622,0.35597 0.141623,0.122485 0.413385,0.122485 0.168417,0 0.344488,-0.05742 0.176072,-0.06124 0.321522,-0.206692 v -1.531056 q 0,-0.287073 -0.09569,-0.451662 -0.09186,-0.164589 -0.302384,-0.233486 -0.206692,-0.07273 -0.555008,-0.07273 -0.241141,0 -0.547352,0.0421 -0.306211,0.03828 -0.585629,0.126312 v -0.918634 q 0.306211,-0.08803 0.669837,-0.130139 0.367453,-0.04593 0.68132,-0.04593 0.666009,0 1.090877,0.164588 0.428696,0.164589 0.631561,0.551181 0.202865,0.382764 0.202865,1.044945 v 2.491794 H 51.48276 l -0.08421,-0.417213 h -0.05741 q -0.187555,0.256452 -0.478455,0.375109 -0.290901,0.118657 -0.631561,0.118657 z"
       id="path27447" />
    <path
       d="m 53.362134,15.997385 v -4.187438 h 1.006669 l 0.08038,0.428695 h 0.05741 q 0.222003,-0.244968 0.516732,-0.367453 0.298556,-0.126312 0.658354,-0.126312 0.371281,0 0.666009,0.160761 0.298556,0.156933 0.466972,0.512904 0.172244,0.352142 0.172244,0.933944 v 2.644899 h -1.194224 v -2.541553 q 0,-0.375109 -0.141622,-0.516731 -0.137795,-0.145451 -0.382764,-0.145451 -0.122485,0 -0.252625,0.03828 -0.126312,0.03828 -0.241141,0.114829 -0.111001,0.07655 -0.195209,0.19521 v 2.855419 z m 4.811344,0 v -2.541553 q 0,-0.375109 -0.153106,-0.516731 -0.153106,-0.145451 -0.394247,-0.145451 -0.133967,0 -0.267935,0.0421 -0.13014,0.03828 -0.248796,0.122485 -0.118657,0.08421 -0.206693,0.218175 L 56.66156,12.384093 q 0.279417,-0.34066 0.63156,-0.489938 0.352143,-0.149278 0.708114,-0.149278 0.401902,0 0.715768,0.160761 0.313867,0.160761 0.493766,0.524386 0.179899,0.363626 0.179899,0.960738 v 2.606623 z"
       id="path27449" />
    <path
       d="m 61.411664,16.073938 q -0.643044,0 -1.002842,-0.333005 -0.35597,-0.336832 -0.35597,-0.876529 0,-0.593285 0.409557,-0.926289 0.413385,-0.333005 1.332019,-0.394247 l 0.880357,-0.07273 0.13014,0.673664 -0.888013,0.07273 q -0.352142,0.02679 -0.509076,0.160761 -0.153105,0.133968 -0.153105,0.367454 0,0.229658 0.141622,0.35597 0.141623,0.122485 0.413385,0.122485 0.168417,0 0.344488,-0.05742 0.176072,-0.06124 0.321522,-0.206692 v -1.531056 q 0,-0.287073 -0.09569,-0.451662 -0.09186,-0.164589 -0.302384,-0.233486 -0.206692,-0.07273 -0.555008,-0.07273 -0.241141,0 -0.547352,0.0421 -0.306211,0.03828 -0.585629,0.126312 v -0.918634 q 0.306211,-0.08803 0.669837,-0.130139 0.367453,-0.04593 0.68132,-0.04593 0.666009,0 1.090877,0.164588 0.428696,0.164589 0.631561,0.551181 0.202865,0.382764 0.202865,1.044945 v 2.491794 h -1.002842 l -0.08421,-0.417213 h -0.05741 q -0.187555,0.256452 -0.478455,0.375109 -0.290901,0.118657 -0.631561,0.118657 z"
       id="path27451" />
  </g>
  <path
     id="rect4872"
     style="fill:#231f20;stroke-width:0.31;stroke-linecap:round;stroke-linejoin:round;paint-order:fill markers stroke"
     d="M 3.6186767,1.5213758 H 20.965778 c 1.209945,0 2.184016,0.974071 2.184016,2.1840157 V 16.190329 c 0,1.209944 -0.974071,2.184015 -2.184016,2.184015 H 3.6186767 c -1.2099447,0 -2.1840156,-0.974071 -2.1840156,-2.184015 V 3.7053915 c 0,-1.2099447 0.9740709,-2.1840157 2.1840156,-2.1840157 z" />
  <path
     style="color:#000000;fill:#ffffff;stroke-width:1;stroke-linecap:round;stroke-linejoin:round;-inkscape-stroke:none"
     d="M 6.4579064,5.2957542 A 0.84657384,0.84657384 0 0 0 5.8394177,5.4891139 0.84657384,0.84657384 0 0 0 5.7324947,6.6819127 L 8.0060485,9.4023667 5.7324947,12.12346 a 0.84657384,0.84657384 0 0 0 0.106923,1.192159 0.84657384,0.84657384 0 0 0 1.1921592,-0.106925 L 9.7584328,9.9453049 a 0.84665849,0.84665849 0 0 0 0,-1.0858764 L 7.0315769,5.5960363 A 0.84657384,0.84657384 0 0 0 6.4579064,5.2957542 Z"
     id="path5362" />
  <path
     style="color:#000000;fill:#fbb217;fill-opacity:1;stroke-width:1;stroke-linecap:round;stroke-linejoin:round;-inkscape-stroke:none"
     d="m 10.499851,13.812458 a 0.84657384,0.84657384 0 0 0 -0.8464203,0.847062 0.84657384,0.84657384 0 0 0 0.8464203,0.84642 h 5.388405 a 0.84657384,0.84657384 0 0 0 0.846421,-0.84642 0.84657384,0.84657384 0 0 0 -0.846421,-0.847062 z"
     id="path5946" />
</svg>
