<?xml version="1.0" encoding="UTF-8" standalone="no"?>
<!-- Created with Inkscape (http://www.inkscape.org/) -->

<svg
   id="svg4692"
   sodipodi:docname="logo-generic4.svg"
   viewBox="0 0 1425.8 353.74"
   version="1.1"
   inkscape:version="1.2-alpha1 (b6a15bbbed, 2022-02-23)"
   xmlns:inkscape="http://www.inkscape.org/namespaces/inkscape"
   xmlns:sodipodi="http://sodipodi.sourceforge.net/DTD/sodipodi-0.dtd"
   xmlns:xlink="http://www.w3.org/1999/xlink"
   xmlns="http://www.w3.org/2000/svg"
   xmlns:svg="http://www.w3.org/2000/svg"
   xmlns:rdf="http://www.w3.org/1999/02/22-rdf-syntax-ns#"
   xmlns:cc="http://creativecommons.org/ns#"
   xmlns:dc="http://purl.org/dc/elements/1.1/">
  <defs
     id="defs4694">
    <linearGradient
       id="linearGradient5311"
       y2="488.42999"
       gradientUnits="userSpaceOnUse"
       x2="-469.87"
       y1="-68.973"
       x1="-467.57001"
       gradientTransform="matrix(0.61926998,0,0,0.61926998,-180.572,80.702303)"
       spreadMethod="pad">
      <stop
         id="stop2535"
         style="stop-color:#2294fe"
         offset="0" />
      <stop
         id="stop2537"
         style="stop-color:#014f96"
         offset="1" />
    </linearGradient>
    <linearGradient
       id="linearGradient5311-1"
       y2="488.42999"
       gradientUnits="userSpaceOnUse"
       x2="-469.87"
       y1="-68.973"
       x1="-467.57001"
       gradientTransform="matrix(0.61926998,0,0,0.61926998,-180.572,80.702303)"
       spreadMethod="pad">
      <stop
         id="stop5227"
         style="stop-color:#fe7d22;stop-opacity:1;"
         offset="0" />
      <stop
         id="stop5229"
         style="stop-color:#ddd201;stop-opacity:1;"
         offset="1" />
    </linearGradient>
    <linearGradient
       inkscape:collect="always"
       xlink:href="#linearGradient5311-1"
       id="linearGradient2533"
       gradientUnits="userSpaceOnUse"
       gradientTransform="matrix(0.61926998,0,0,0.61926998,263.96626,66.902924)"
       x1="-467.57001"
       y1="-68.973"
       x2="-469.87"
       y2="488.42999"
       spreadMethod="reflect" />
    <linearGradient
       inkscape:collect="always"
       xlink:href="#linearGradient5311-1-0"
       id="linearGradient2533-8"
       gradientUnits="userSpaceOnUse"
       gradientTransform="matrix(0.61926998,0,0,0.61926998,263.96626,66.902924)"
       x1="-467.57001"
       y1="-68.973"
       x2="-469.87"
       y2="488.42999" />
    <linearGradient
       id="linearGradient5311-1-0"
       y2="488.42999"
       gradientUnits="userSpaceOnUse"
       x2="-469.87"
       y1="-68.973"
       x1="-467.57001"
       gradientTransform="matrix(0.61926998,0,0,0.61926998,-180.572,80.702303)"
       spreadMethod="pad">
      <stop
         id="stop5227-6"
         style="stop-color:#fe2265;stop-opacity:1;"
         offset="0" />
      <stop
         id="stop5229-6"
         style="stop-color:#5f0196;stop-opacity:1;"
         offset="1" />
    </linearGradient>
  </defs>
  <sodipodi:namedview
     id="namedview4696"
     bordercolor="#666666"
     inkscape:pageshadow="2"
     inkscape:window-y="-8"
     pagecolor="#ffffff"
     inkscape:window-height="1009"
     inkscape:window-maximized="1"
     inkscape:zoom="0.43415836"
     inkscape:window-x="1912"
     showgrid="false"
     borderopacity="1.0"
     inkscape:current-layer="text4703"
     inkscape:cx="642.62266"
     inkscape:cy="200.38771"
     inkscape:window-width="1920"
     inkscape:pageopacity="0.0"
     inkscape:document-units="mm"
     inkscape:pagecheckerboard="0"
     inkscape:deskcolor="#d1d1d1" />
  <g
     id="layer1"
     inkscape:label="Layer 1"
     inkscape:groupmode="layer"
     transform="translate(364.43 8.4823)">
    <g
       id="text4703"
       style="fill:#666666"
       transform="translate(-14.426,-21.336)">
      <text
         xml:space="preserve"
         style="font-style:normal;font-weight:normal;font-size:211.674px;line-height:1.25;font-family:sans-serif;fill:#666666;fill-opacity:1;stroke:none;stroke-width:1"
         x="35.377815"
         y="335.15884"
         id="text18410"><tspan
           sodipodi:role="line"
           id="tspan18408"
           x="35.377815"
           y="335.15884"
           style="stroke-width:1;fill:#666666;fill-opacity:1">institution</tspan></text>
    </g>
    <g
       id="text4707"
       style="fill:#666666"
       transform="translate(-416.34,-21.336)">
      <path
         id="path5241"
         d="m 489.95,115.06 c -5e-5,-6.6749 -1.3851,-11.848 -4.1551,-15.519 -2.7368,-3.6712 -6.5915,-5.5068 -11.564,-5.5068 -4.9395,5e-5 -8.7942,1.8357 -11.564,5.5068 -2.7367,3.6712 -4.1051,8.8443 -4.1051,15.519 -1e-5,6.6416 1.3683,11.798 4.1051,15.469 2.7701,3.6712 6.6248,5.5068 11.564,5.5068 4.9728,1e-5 8.8275,-1.8356 11.564,-5.5068 2.77,-3.6712 4.1551,-8.8276 4.1551,-15.469 m 9.2114,21.727 c -5e-5,9.5451 -2.1193,16.637 -6.3579,21.276 -4.2386,4.6724 -10.73,7.0086 -19.474,7.0087 -3.2374,-2e-5 -6.2911,-0.25033 -9.1613,-0.75093 -2.8702,-0.46727 -5.657,-1.2015 -8.3603,-2.2027 v -8.9611 c 2.7033,1.4685 5.3733,2.5532 8.0099,3.254 2.6366,0.70085 5.3232,1.0513 8.06,1.0513 6.0408,-2e-5 10.563,-1.5853 13.567,-4.7559 3.0037,-3.1372 4.5055,-7.8931 4.5056,-14.268 v -4.5556 c -1.9024,3.3041 -4.3387,5.7738 -7.309,7.4092 -2.9704,1.6354 -6.5248,2.453 -10.663,2.453 -6.8752,0 -12.415,-2.6199 -16.621,-7.8597 -4.2052,-5.2398 -6.3078,-12.182 -6.3078,-20.826 -10e-6,-8.6774 2.1026,-15.636 6.3078,-20.876 4.2052,-5.2398 9.7454,-7.8597 16.621,-7.8597 4.1384,5.8e-5 7.6928,0.81774 10.663,2.453 2.9703,1.6354 5.4066,4.1051 7.309,7.4092 v -8.5105 h 9.2114 v 49.111" />
      <path
         id="path5243"
         d="m 566.09,113.41 v 4.5056 h -42.352 c 0.40048,6.3412 2.3028,11.18 5.707,14.518 3.4376,3.3041 8.2101,4.9561 14.318,4.9561 3.5377,1e-5 6.9586,-0.43386 10.263,-1.3016 3.3374,-0.86773 6.6415,-2.1693 9.9123,-3.9048 v 8.7108 c -3.3041,1.4017 -6.6917,2.4697 -10.163,3.204 -3.471,0.73424 -6.992,1.1014 -10.563,1.1014 -8.9444,0 -16.037,-2.6032 -21.276,-7.8097 -5.2064,-5.2064 -7.8097,-12.248 -7.8097,-21.126 -1e-5,-9.178 2.4697,-16.454 7.4092,-21.827 4.9728,-5.4066 11.664,-8.11 20.075,-8.11 7.5426,5.8e-5 13.5,2.4364 17.872,7.309 4.4054,4.8394 6.6081,11.431 6.6082,19.774 m -9.2114,-2.7033 c -0.0668,-5.0395 -1.4852,-9.0612 -4.2553,-12.065 -2.7368,-3.0037 -6.3746,-4.5055 -10.914,-4.5056 -5.1397,5e-5 -9.2615,1.4518 -12.365,4.3554 -3.0705,2.9036 -4.8393,6.992 -5.3066,12.265 l 32.841,-0.0501" />
      <path
         id="path5245"
         d="m 627.62,109.9 v 33.842 h -9.2114 v -33.541 c -4e-5,-5.3065 -1.0347,-9.2781 -3.1038,-11.915 -2.0693,-2.6365 -5.1731,-3.9548 -9.3115,-3.9549 -4.9728,4.9e-5 -8.8944,1.5853 -11.765,4.7559 -2.8702,3.1706 -4.3053,7.4926 -4.3053,12.966 v 31.689 h -9.2614 V 87.673 h 9.2614 v 8.7108 c 2.2027,-3.3708 4.7892,-5.8906 7.7596,-7.5593 3.0037,-1.6687 6.458,-2.503 10.363,-2.5031 6.4412,5.8e-5 11.314,2.0025 14.618,6.0074 3.304,3.9716 4.9561,9.8289 4.9561,17.572" />
      <path
         id="path5247"
         d="m 694.05,113.41 v 4.5056 h -42.352 c 0.40048,6.3412 2.3028,11.18 5.7071,14.518 3.4376,3.3041 8.2101,4.9561 14.318,4.9561 3.5377,1e-5 6.9586,-0.43386 10.263,-1.3016 3.3374,-0.86773 6.6415,-2.1693 9.9123,-3.9048 v 8.7108 c -3.3041,1.4017 -6.6917,2.4697 -10.163,3.204 -3.471,0.73424 -6.992,1.1014 -10.563,1.1014 -8.9444,0 -16.037,-2.6032 -21.276,-7.8097 -5.2064,-5.2064 -7.8097,-12.248 -7.8097,-21.126 0,-9.178 2.4697,-16.454 7.4092,-21.827 4.9728,-5.4066 11.664,-8.11 20.075,-8.11 7.5426,5.8e-5 13.5,2.4364 17.872,7.309 4.4054,4.8394 6.6081,11.431 6.6082,19.774 m -9.2114,-2.7033 c -0.0668,-5.0395 -1.4852,-9.0612 -4.2553,-12.065 -2.7368,-3.0037 -6.3746,-4.5055 -10.913,-4.5056 -5.1397,5e-5 -9.2615,1.4518 -12.365,4.3554 -3.0705,2.9036 -4.8393,6.992 -5.3066,12.265 l 32.841,-0.0501" />
      <path
         id="path5249"
         d="m 741.46,96.286 c -1.0346,-0.60069 -2.1694,-1.0346 -3.4042,-1.3016 -1.2015,-0.30032 -2.5365,-0.45051 -4.005,-0.45056 -5.2065,4.9e-5 -9.2114,1.7022 -12.015,5.1063 -2.7701,3.3709 -4.1552,8.2269 -4.1551,14.568 v 29.537 h -9.2614 v -56.069 h 9.2614 v 8.7108 c 1.9357,-3.4042 4.4555,-5.9239 7.5594,-7.5593 3.1038,-1.6687 6.8751,-2.503 11.314,-2.5031 0.63408,5.8e-5 1.335,0.05012 2.1026,0.15019 0.76758,0.06681 1.6186,0.18362 2.5532,0.35043 l 0.0501,9.4617" />
      <path
         id="path5251"
         d="m 751.22,87.676 h 9.2114 v 56.069 H 751.22 V 87.676 m 0,-21.827 h 9.2114 V 77.513 H 751.22 V 65.849" />
      <path
         id="path5253"
         d="m 820.01,89.828 v 8.6106 c -2.6033,-1.4351 -5.2232,-2.503 -7.8597,-3.204 -2.6033,-0.73419 -5.2398,-1.1013 -7.9098,-1.1014 -5.9741,5e-5 -10.613,1.9024 -13.917,5.7071 -3.3041,3.7714 -4.9561,9.0779 -4.9561,15.92 -10e-6,6.8418 1.652,12.165 4.9561,15.97 3.3041,3.7713 7.9431,5.657 13.917,5.657 2.6699,1e-5 5.3065,-0.35043 7.9098,-1.0513 2.6366,-0.73423 5.2565,-1.8189 7.8597,-3.254 v 8.5105 c -2.5699,1.2015 -5.2398,2.1026 -8.0099,2.7033 -2.7368,0.60075 -5.657,0.90112 -8.7608,0.90112 -8.4438,0 -15.152,-2.6533 -20.125,-7.9598 -4.9728,-5.3066 -7.4592,-12.465 -7.4592,-21.477 -10e-6,-9.1446 2.5031,-16.337 7.5093,-21.577 5.0395,-5.2398 11.931,-7.8597 20.676,-7.8597 2.8368,5.8e-5 5.6069,0.30043 8.3103,0.90112 2.7033,0.56742 5.3232,1.4352 7.8597,2.6032" />
      <path
         id="path5255"
         d="m 868.57,65.849 h 9.2114 v 77.896 H 868.57 V 65.849" />
      <path
         id="path5257"
         d="m 918.73,94.134 c -4.9395,5e-5 -8.8443,1.9358 -11.714,5.8072 -2.8702,3.8381 -4.3053,9.1113 -4.3053,15.82 -10e-6,6.7083 1.4184,11.998 4.2553,15.87 2.8702,3.8381 6.7917,5.7571 11.765,5.7571 4.906,1e-5 8.7942,-1.9357 11.664,-5.8072 2.8702,-3.8714 4.3053,-9.1446 4.3053,-15.82 -5e-5,-6.6415 -1.4352,-11.898 -4.3053,-15.769 -2.8703,-3.9048 -6.7584,-5.8572 -11.664,-5.8572 m 0,-7.8097 c 8.0099,5.8e-5 14.301,2.6033 18.873,7.8097 4.5723,5.2065 6.8584,12.415 6.8585,21.627 -6e-5,9.178 -2.2862,16.387 -6.8585,21.627 -4.5724,5.2064 -10.863,7.8097 -18.873,7.8097 -8.0433,0 -14.351,-2.6032 -18.923,-7.8097 -4.539,-5.2398 -6.8084,-12.449 -6.8084,-21.627 0,-9.2114 2.2695,-16.42 6.8084,-21.627 4.5723,-5.2064 10.88,-7.8096 18.923,-7.8097" />
      <path
         id="path5259"
         d="m 996.58,115.06 c -4e-5,-6.6749 -1.3851,-11.848 -4.1551,-15.519 -2.7368,-3.6712 -6.5915,-5.5068 -11.564,-5.5068 -4.9395,5e-5 -8.7942,1.8357 -11.564,5.5068 -2.7367,3.6712 -4.1051,8.8443 -4.1051,15.519 -2e-5,6.6416 1.3683,11.798 4.1051,15.469 2.7701,3.6712 6.6248,5.5068 11.564,5.5068 4.9728,1e-5 8.8276,-1.8356 11.564,-5.5068 2.77,-3.6712 4.1551,-8.8276 4.1551,-15.469 m 9.2114,21.727 c -10e-5,9.5451 -2.1193,16.637 -6.3579,21.276 -4.2386,4.6724 -10.73,7.0086 -19.474,7.0087 -3.2374,-2e-5 -6.2911,-0.25033 -9.1613,-0.75093 -2.8702,-0.46727 -5.657,-1.2015 -8.3603,-2.2027 v -8.9611 c 2.7033,1.4685 5.3733,2.5532 8.0099,3.254 2.6366,0.70085 5.3232,1.0513 8.06,1.0513 6.0408,-2e-5 10.563,-1.5853 13.567,-4.7559 3.0037,-3.1372 4.5055,-7.8931 4.5056,-14.268 v -4.5556 c -1.9024,3.3041 -4.3387,5.7738 -7.309,7.4092 -2.9704,1.6354 -6.5248,2.453 -10.663,2.453 -6.8752,0 -12.415,-2.6199 -16.621,-7.8597 -4.2052,-5.2398 -6.3078,-12.182 -6.3078,-20.826 0,-8.6774 2.1026,-15.636 6.3078,-20.876 4.2052,-5.2398 9.7454,-7.8597 16.621,-7.8597 4.1384,5.8e-5 7.6928,0.81774 10.663,2.453 2.9703,1.6354 5.4066,4.1051 7.309,7.4092 v -8.5105 h 9.2114 v 49.111" />
      <path
         id="path5261"
         d="m 1046.5,94.134 c -4.9395,5e-5 -8.8443,1.9358 -11.714,5.8072 -2.8703,3.8381 -4.3054,9.1113 -4.3054,15.82 0,6.7083 1.4184,11.998 4.2553,15.87 2.8702,3.8381 6.7917,5.7571 11.765,5.7571 4.906,1e-5 8.7941,-1.9357 11.664,-5.8072 2.8701,-3.8714 4.3053,-9.1446 4.3053,-15.82 0,-6.6415 -1.4352,-11.898 -4.3053,-15.769 -2.8703,-3.9048 -6.7584,-5.8572 -11.664,-5.8572 m 0,-7.8097 c 8.0098,5.8e-5 14.301,2.6033 18.873,7.8097 4.5723,5.2065 6.8584,12.415 6.8585,21.627 -1e-4,9.178 -2.2862,16.387 -6.8585,21.627 -4.5724,5.2064 -10.864,7.8097 -18.873,7.8097 -8.0434,0 -14.351,-2.6032 -18.924,-7.8097 -4.5389,-5.2398 -6.8084,-12.449 -6.8084,-21.627 0,-9.2114 2.2695,-16.42 6.8084,-21.627 4.5724,-5.2064 10.88,-7.8096 18.924,-7.8097" />
    </g>
    <g
       id="g15005"
       transform="matrix(0.91404618,0,0,0.91404618,82.543532,-301.78527)"
       style="stroke-width:1.09404">
      <path
         sodipodi:type="star"
         style="font-variation-settings:normal;opacity:1;vector-effect:none;fill:url(#linearGradient2533);fill-opacity:1;fill-rule:evenodd;stroke:none;stroke-width:0.677504;stroke-linecap:butt;stroke-linejoin:miter;stroke-miterlimit:4;stroke-dasharray:none;stroke-dashoffset:0;stroke-opacity:1;-inkscape-stroke:none;stop-color:#000000;stop-opacity:1"
         id="path11897"
         inkscape:flatsided="false"
         sodipodi:sides="5"
         sodipodi:cx="79.805519"
         sodipodi:cy="539.09442"
         sodipodi:r1="205.27234"
         sodipodi:r2="102.63617"
         sodipodi:arg1="0.90349019"
         sodipodi:arg2="1.5318087"
         inkscape:rounded="0.21"
         inkscape:randomized="0"
         d="M 206.84287,700.33413 C 184.35739,718.04997 112.41029,640.53682 83.806046,641.6526 55.2018,642.76837 -10.488702,725.6504 -34.28586,709.73993 c -23.797158,-15.91047 27.6893545,-108.2891 17.78899,-135.14856 -9.900364,-26.85946 -109.02534,-63.72289 -101.24731,-91.27194 7.77803,-27.54904 111.5455391,-7.12903 134.031023,-24.84486 22.485484,-17.71584 26.91338,-123.38072 55.517626,-124.4965 28.604241,-1.11577 41.249581,103.88312 65.046741,119.79359 23.79715,15.91048 125.65872,-12.53059 135.55909,14.32887 9.90036,26.85946 -86.0519,71.33234 -93.82993,98.88138 -7.77803,27.54905 50.74798,115.63639 28.2625,133.35222 z"
         transform="translate(-364.43,-8.4823)"
         inkscape:transform-center-x="2.3317898"
         inkscape:transform-center-y="-16.225673" />
      <path
         sodipodi:type="star"
         style="font-variation-settings:normal;opacity:1;vector-effect:none;fill:#ffffff;fill-opacity:1;fill-rule:evenodd;stroke:none;stroke-width:1.60715;stroke-linecap:butt;stroke-linejoin:miter;stroke-miterlimit:4;stroke-dasharray:none;stroke-dashoffset:0;stroke-opacity:1;-inkscape-stroke:none;stop-color:#000000;stop-opacity:1"
         id="path13123"
         inkscape:flatsided="false"
         sodipodi:sides="5"
         sodipodi:cx="79.805519"
         sodipodi:cy="539.09442"
         sodipodi:r1="205.27234"
         sodipodi:r2="102.63617"
         sodipodi:arg1="0.90349019"
         sodipodi:arg2="1.5318087"
         inkscape:rounded="0.21"
         inkscape:randomized="0"
         d="M 206.84287,700.33413 C 184.35739,718.04997 112.41029,640.53682 83.806046,641.6526 55.2018,642.76837 -10.488702,725.6504 -34.28586,709.73993 c -23.797158,-15.91047 27.6893545,-108.2891 17.78899,-135.14856 -9.900364,-26.85946 -109.02534,-63.72289 -101.24731,-91.27194 7.77803,-27.54904 111.5455391,-7.12903 134.031023,-24.84486 22.485484,-17.71584 26.91338,-123.38072 55.517626,-124.4965 28.604241,-1.11577 41.249581,103.88312 65.046741,119.79359 23.79715,15.91048 125.65872,-12.53059 135.55909,14.32887 9.90036,26.85946 -86.0519,71.33234 -93.82993,98.88138 -7.77803,27.54905 50.74798,115.63639 28.2625,133.35222 z"
         transform="matrix(0.42155466,0,0,0.42155466,-301.15615,329.94595)"
         inkscape:transform-center-x="0.98297703"
         inkscape:transform-center-y="-6.8400057" />
    </g>
  </g>
  <metadata
     id="metadata32">
    <rdf:RDF>
      <cc:Work>
        <dc:format>image/svg+xml</dc:format>
        <dc:type
           rdf:resource="http://purl.org/dc/dcmitype/StillImage" />
        <cc:license
           rdf:resource="http://creativecommons.org/publicdomain/zero/1.0/" />
        <dc:publisher>
          <cc:Agent
             rdf:about="http://openclipart.org/">
            <dc:title>Openclipart</dc:title>
          </cc:Agent>
        </dc:publisher>
        <dc:date>2010-08-03T00:39:17</dc:date>
        <dc:description>generic example of a logo</dc:description>
        <dc:source>https://openclipart.org/detail/76573/generic-logo-by-shokunin</dc:source>
        <dc:creator>
          <cc:Agent>
            <dc:title>shokunin</dc:title>
          </cc:Agent>
        </dc:creator>
        <dc:subject>
          <rdf:Bag>
            <rdf:li>company</rdf:li>
            <rdf:li>logo</rdf:li>
            <rdf:li>logotyp</rdf:li>
            <rdf:li>sign</rdf:li>
            <rdf:li>trademark</rdf:li>
            <rdf:li>your company</rdf:li>
          </rdf:Bag>
        </dc:subject>
      </cc:Work>
      <cc:License
         rdf:about="http://creativecommons.org/publicdomain/zero/1.0/">
        <cc:permits
           rdf:resource="http://creativecommons.org/ns#Reproduction" />
        <cc:permits
           rdf:resource="http://creativecommons.org/ns#Distribution" />
        <cc:permits
           rdf:resource="http://creativecommons.org/ns#DerivativeWorks" />
      </cc:License>
    </rdf:RDF>
  </metadata>
</svg>
