<?xml version="1.0" encoding="UTF-8" standalone="no"?>
<!-- Created with Inkscape (http://www.inkscape.org/) -->

<svg
   id="svg4692"
   sodipodi:docname="logo-generic3.svg"
   viewBox="0 0 1425.8 353.74"
   version="1.1"
   inkscape:version="1.2-alpha1 (b6a15bbbed, 2022-02-23)"
   xmlns:inkscape="http://www.inkscape.org/namespaces/inkscape"
   xmlns:sodipodi="http://sodipodi.sourceforge.net/DTD/sodipodi-0.dtd"
   xmlns:xlink="http://www.w3.org/1999/xlink"
   xmlns="http://www.w3.org/2000/svg"
   xmlns:svg="http://www.w3.org/2000/svg"
   xmlns:rdf="http://www.w3.org/1999/02/22-rdf-syntax-ns#"
   xmlns:cc="http://creativecommons.org/ns#"
   xmlns:dc="http://purl.org/dc/elements/1.1/">
  <defs
     id="defs4694">
    <linearGradient
       id="linearGradient5311"
       y2="488.42999"
       gradientUnits="userSpaceOnUse"
       x2="-469.87"
       y1="-68.973"
       x1="-467.57001"
       gradientTransform="matrix(0.61926998,0,0,0.61926998,-180.572,80.702303)"
       spreadMethod="pad">
      <stop
         id="stop2535"
         style="stop-color:#2294fe"
         offset="0" />
      <stop
         id="stop2537"
         style="stop-color:#014f96"
         offset="1" />
    </linearGradient>
    <linearGradient
       id="linearGradient5311-1"
       y2="488.42999"
       gradientUnits="userSpaceOnUse"
       x2="-469.87"
       y1="-68.973"
       x1="-467.57001"
       gradientTransform="matrix(0.61926998,0,0,0.61926998,-180.572,80.702303)"
       spreadMethod="pad">
      <stop
         id="stop5227"
         style="stop-color:#98fe22;stop-opacity:1;"
         offset="0" />
      <stop
         id="stop9267"
         style="stop-color:#207a7d;stop-opacity:1;"
         offset="0.5324074" />
      <stop
         id="stop5229"
         style="stop-color:#015896;stop-opacity:1;"
         offset="1" />
    </linearGradient>
    <linearGradient
       inkscape:collect="always"
       xlink:href="#linearGradient5311-1"
       id="linearGradient2533"
       gradientUnits="userSpaceOnUse"
       gradientTransform="matrix(0.61926998,0,0,0.61926998,263.96626,66.902924)"
       x1="-467.57001"
       y1="-68.973"
       x2="-469.87"
       y2="488.42999"
       spreadMethod="reflect" />
  </defs>
  <sodipodi:namedview
     id="namedview4696"
     bordercolor="#666666"
     inkscape:pageshadow="2"
     inkscape:window-y="-8"
     pagecolor="#ffffff"
     inkscape:window-height="1009"
     inkscape:window-maximized="1"
     inkscape:zoom="0.30699632"
     inkscape:window-x="1912"
     showgrid="false"
     borderopacity="1.0"
     inkscape:current-layer="layer1"
     inkscape:cx="185.66998"
     inkscape:cy="524.43625"
     inkscape:window-width="1920"
     inkscape:pageopacity="0.0"
     inkscape:document-units="mm"
     inkscape:pagecheckerboard="0"
     inkscape:deskcolor="#d1d1d1" />
  <g
     id="layer1"
     inkscape:label="Layer 1"
     inkscape:groupmode="layer"
     transform="translate(364.43 8.4823)">
    <g
       id="g10731"
       transform="translate(0,4.2836139)">
      <path
         sodipodi:type="star"
         style="font-variation-settings:normal;opacity:1;vector-effect:none;fill:url(#linearGradient2533);fill-opacity:1;fill-rule:evenodd;stroke:none;stroke-width:0.768795;stroke-linecap:butt;stroke-linejoin:miter;stroke-miterlimit:4;stroke-dasharray:none;stroke-dashoffset:0;stroke-opacity:1;-inkscape-stroke:none;stop-color:#000000;stop-opacity:1"
         id="path7292"
         inkscape:flatsided="true"
         sodipodi:sides="3"
         sodipodi:cx="-581.44019"
         sodipodi:cy="-0.28917089"
         sodipodi:r1="242.93663"
         sodipodi:r2="121.46831"
         sodipodi:arg1="0.52359878"
         sodipodi:arg2="1.5707963"
         inkscape:rounded="0.21"
         inkscape:randomized="0"
         d="m -371.05089,121.17915 c -44.18175,76.52503 -376.59684,76.52503 -420.77859,-1e-5 -44.18175,-76.525035 122.02579,-364.40494 210.3893,-364.40494 88.3635,0 254.57104,287.879907 210.38929,364.40495 z"
         transform="matrix(0.80550689,0,0,0.80550689,279.29506,190.14325)"
         inkscape:transform-center-x="-2.7411848e-06"
         inkscape:transform-center-y="-25.80624" />
      <path
         sodipodi:type="star"
         style="font-variation-settings:normal;opacity:1;vector-effect:none;fill:#ffffff;fill-opacity:1;stroke:none;stroke-width:1.95235;stroke-linecap:butt;stroke-linejoin:miter;stroke-miterlimit:4;stroke-dasharray:none;stroke-dashoffset:0;stroke-opacity:1;-inkscape-stroke:none;stop-color:#000000;stop-opacity:1"
         id="path8323"
         inkscape:flatsided="true"
         sodipodi:sides="3"
         sodipodi:cx="-581.44019"
         sodipodi:cy="-0.28917089"
         sodipodi:r1="242.93663"
         sodipodi:r2="121.46831"
         sodipodi:arg1="0.52359878"
         sodipodi:arg2="1.5707963"
         inkscape:rounded="0.21"
         inkscape:randomized="0"
         d="m -371.05089,121.17915 c -44.18175,76.52503 -376.59684,76.52503 -420.77859,-1e-5 -44.18175,-76.525035 122.02579,-364.40494 210.3893,-364.40494 88.3635,0 254.57104,287.879907 210.38929,364.40495 z"
         transform="matrix(0.31720414,0,0,0.31718136,67.479529,243.08467)"
         inkscape:transform-center-x="-5.0141273e-06"
         inkscape:transform-center-y="-10.16162" />
    </g>
    <g
       id="text4703"
       style="fill:#666666"
       transform="translate(-14.426,-21.336)">
      <path
         id="path5264"
         d="m 145.49,192.37 v 19.095 c -5.773,-3.1824 -11.583,-5.5508 -17.43,-7.1051 -5.773,-1.6282 -11.62,-2.4423 -17.541,-2.4424 -13.248,1.1e-4 -23.536,4.2188 -30.863,12.656 -7.3272,8.3634 -10.991,20.131 -10.991,35.304 -3.4e-5,15.172 3.6635,26.977 10.991,35.415 7.3271,8.3634 17.615,12.545 30.863,12.545 5.9209,2e-5 11.768,-0.77711 17.541,-2.3314 5.8468,-1.6282 11.657,-4.0336 17.43,-7.2162 v 18.873 c -5.699,2.6644 -11.62,4.6628 -17.763,5.995 -6.0691,1.3322 -12.545,1.9983 -19.428,1.9983 -18.725,0 -33.601,-5.8839 -44.629,-17.652 -11.028,-11.7681 -16.542,-27.643 -16.542,-47.627 -1.2e-5,-20.279 5.5509,-36.229 16.653,-47.849 11.176,-11.62 26.459,-17.43 45.85,-17.43 6.2909,1.3e-4 12.434,0.66623 18.429,1.9983 5.9949,1.2583 11.805,3.1826 17.43,5.7729" />
      <path
         id="path5266"
         d="m 228.98,201.92 c -10.954,1.1e-4 -19.613,4.2928 -25.978,12.878 -6.3651,8.5114 -9.5476,20.205 -9.5475,35.082 -3e-5,14.876 3.1455,26.607 9.4365,35.193 6.365,8.5114 15.061,12.767 26.089,12.767 10.88,2e-5 19.502,-4.2927 25.867,-12.878 6.3649,-8.5853 9.5474,-20.279 9.5475,-35.082 -1.1e-4,-14.728 -3.1826,-26.385 -9.5475,-34.971 -6.3651,-8.6593 -14.987,-12.989 -25.867,-12.989 m 0,-17.319 c 17.763,1.3e-4 31.714,5.773 41.854,17.319 10.14,11.546 15.209,27.532 15.209,47.96 -1.3e-4,20.353 -5.0699,36.34 -15.209,47.96 -10.14,11.546 -24.091,17.319 -41.854,17.319 -17.837,0 -31.825,-5.7729 -41.965,-17.319 -10.066,-11.62 -15.098,-27.606 -15.098,-47.96 -1e-5,-20.427 5.0328,-36.414 15.098,-47.96 10.14,-11.546 24.128,-17.319 41.965,-17.319" />
      <path
         id="path5268"
         d="m 416.6,211.46 c 5.1067,-9.1774 11.213,-15.949 18.318,-20.316 7.105,-4.3666 15.468,-6.5499 25.09,-6.55 12.952,1.3e-4 22.943,4.5518 29.975,13.655 7.0309,9.0296 10.546,21.908 10.547,38.634 v 75.048 h -20.538 v -74.382 c -1.9e-4,-11.916 -2.1095,-20.76 -6.328,-26.533 -4.2188,-5.7728 -10.658,-8.6593 -19.317,-8.6594 -10.584,1.1e-4 -18.947,3.5157 -25.09,10.547 -6.1431,7.0312 -9.2146,16.616 -9.2145,28.754 v 70.274 h -20.538 v -74.382 c -1e-4,-11.99 -2.1094,-20.834 -6.328,-26.533 -4.2188,-5.7728 -10.732,-8.6593 -19.539,-8.6594 -10.436,1.1e-4 -18.725,3.5527 -24.868,10.658 -6.143,7.0312 -9.2145,16.579 -9.2145,28.643 v 70.274 h -20.538 v -124.34 h 20.538 v 19.317 c 4.6627,-7.6231 10.251,-13.248 16.764,-16.875 6.513,-3.6265 14.247,-5.4397 23.203,-5.4399 9.0294,1.3e-4 16.69,2.2945 22.981,6.8831 6.3649,4.5888 11.065,11.25 14.099,19.983" />
      <path
         id="path5270"
         d="m 560.7,293.28 v 65.945 H 540.162 V 187.595 H 560.7 v 18.873 c 4.2926,-7.4011 9.6955,-12.878 16.209,-16.431 6.587,-3.6265 14.432,-5.4397 23.536,-5.4399 15.098,1.3e-4 27.347,5.9951 36.747,17.985 9.4734,11.99 14.21,27.755 14.21,47.294 -1.4e-4,19.539 -4.7369,35.304 -14.21,47.294 -9.3996,11.99 -21.649,17.985 -36.747,17.985 -9.1035,0 -16.949,-1.7763 -23.536,-5.3288 -6.5131,-3.6266 -11.916,-9.1404 -16.209,-16.542 m 69.497,-43.408 c -1.1e-4,-15.024 -3.1086,-26.792 -9.3255,-35.304 -6.1431,-8.5853 -14.617,-12.878 -25.423,-12.878 -10.806,1.1e-4 -19.317,4.2928 -25.534,12.878 -6.143,8.5114 -9.2145,20.279 -9.2145,35.304 -4e-5,15.024 3.0714,26.829 9.2145,35.415 6.2169,8.5114 14.728,12.767 25.534,12.767 10.806,1e-5 19.28,-4.2557 25.423,-12.767 6.2169,-8.5853 9.3254,-20.39 9.3255,-35.415" />
      <path
         id="path5272"
         d="m 741.77,249.43 c -16.505,6e-5 -27.94,1.8874 -34.304,5.6619 -6.365,3.7747 -9.5476,10.214 -9.5475,19.317 -3e-5,7.2532 2.3684,13.026 7.1051,17.319 4.8107,4.2187 11.324,6.328 19.539,6.328 11.324,10e-6 20.39,-3.9966 27.199,-11.99 6.883,-8.0672 10.325,-18.762 10.325,-32.084 v -4.5517 h -20.316 m 40.744,-8.4374 v 70.94 h -20.427 v -18.873 c -4.6628,7.5492 -10.473,13.137 -17.43,16.764 -6.9572,3.5526 -15.469,5.3288 -25.534,5.3288 -12.73,0 -22.87,-3.5526 -30.419,-10.658 -7.4752,-7.1791 -11.213,-16.764 -11.213,-28.754 -10e-6,-13.988 4.6627,-24.535 13.988,-31.64 9.3995,-7.1051 23.388,-10.658 41.965,-10.658 h 28.643 v -1.9983 c -10e-5,-9.3994 -3.1086,-16.653 -9.3255,-21.759 -6.1431,-5.1807 -14.802,-7.7711 -25.978,-7.7712 -7.1052,1.1e-4 -14.025,0.85124 -20.76,2.5534 -6.7351,1.7024 -13.211,4.2558 -19.428,7.6602 v -18.873 c 7.4752,-2.8863 14.728,-5.0327 21.759,-6.439 7.0311,-1.4801 13.877,-2.2202 20.538,-2.2204 17.985,1.3e-4 31.418,4.6629 40.299,13.988 8.8813,9.3256 13.322,23.462 13.322,42.409" />
      <path
         id="path5274"
         d="m 928.5,236.89 v 75.048 h -20.427 v -74.382 c -10e-5,-11.768 -2.2945,-20.575 -6.8831,-26.422 -4.5888,-5.8468 -11.472,-8.7703 -20.649,-8.7704 -11.028,1.1e-4 -19.724,3.5157 -26.089,10.547 -6.3651,7.0312 -9.5476,16.616 -9.5475,28.754 v 70.274 h -20.538 v -124.34 h 20.538 v 19.317 c 4.8847,-7.4751 10.621,-13.063 17.208,-16.764 6.661,-3.7005 14.321,-5.5508 22.981,-5.5509 14.284,1.3e-4 25.09,4.4408 32.417,13.322 7.327,8.8075 10.991,21.797 10.991,38.967" />
      <path
         id="path5276"
         d="m 1021.2,323.48 c -5.7729,14.802 -11.398,24.461 -16.875,28.976 -5.4769,4.5147 -12.804,6.772 -21.981,6.7721 h -16.32 v -17.097 h 11.99 c 5.6249,-3e-5 9.9916,-1.3322 13.1,-3.9966 3.1084,-2.6644 6.55,-8.9554 10.325,-18.873 l 3.6636,-9.3255 -50.291,-122.34 h 21.648 l 38.856,97.252 38.856,-97.252 h 21.648 l -54.621,135.89" />
    </g>
    <g
       id="text4707"
       style="fill:#666666"
       transform="translate(-416.34,-21.336)">
      <path
         id="path5241"
         d="m 489.95,115.06 c -5e-5,-6.6749 -1.3851,-11.848 -4.1551,-15.519 -2.7368,-3.6712 -6.5915,-5.5068 -11.564,-5.5068 -4.9395,5e-5 -8.7942,1.8357 -11.564,5.5068 -2.7367,3.6712 -4.1051,8.8443 -4.1051,15.519 -1e-5,6.6416 1.3683,11.798 4.1051,15.469 2.7701,3.6712 6.6248,5.5068 11.564,5.5068 4.9728,1e-5 8.8275,-1.8356 11.564,-5.5068 2.77,-3.6712 4.1551,-8.8276 4.1551,-15.469 m 9.2114,21.727 c -5e-5,9.5451 -2.1193,16.637 -6.3579,21.276 -4.2386,4.6724 -10.73,7.0086 -19.474,7.0087 -3.2374,-2e-5 -6.2911,-0.25033 -9.1613,-0.75093 -2.8702,-0.46727 -5.657,-1.2015 -8.3603,-2.2027 v -8.9611 c 2.7033,1.4685 5.3733,2.5532 8.0099,3.254 2.6366,0.70085 5.3232,1.0513 8.06,1.0513 6.0408,-2e-5 10.563,-1.5853 13.567,-4.7559 3.0037,-3.1372 4.5055,-7.8931 4.5056,-14.268 v -4.5556 c -1.9024,3.3041 -4.3387,5.7738 -7.309,7.4092 -2.9704,1.6354 -6.5248,2.453 -10.663,2.453 -6.8752,0 -12.415,-2.6199 -16.621,-7.8597 -4.2052,-5.2398 -6.3078,-12.182 -6.3078,-20.826 -10e-6,-8.6774 2.1026,-15.636 6.3078,-20.876 4.2052,-5.2398 9.7454,-7.8597 16.621,-7.8597 4.1384,5.8e-5 7.6928,0.81774 10.663,2.453 2.9703,1.6354 5.4066,4.1051 7.309,7.4092 v -8.5105 h 9.2114 v 49.111" />
      <path
         id="path5243"
         d="m 566.09,113.41 v 4.5056 h -42.352 c 0.40048,6.3412 2.3028,11.18 5.707,14.518 3.4376,3.3041 8.2101,4.9561 14.318,4.9561 3.5377,1e-5 6.9586,-0.43386 10.263,-1.3016 3.3374,-0.86773 6.6415,-2.1693 9.9123,-3.9048 v 8.7108 c -3.3041,1.4017 -6.6917,2.4697 -10.163,3.204 -3.471,0.73424 -6.992,1.1014 -10.563,1.1014 -8.9444,0 -16.037,-2.6032 -21.276,-7.8097 -5.2064,-5.2064 -7.8097,-12.248 -7.8097,-21.126 -1e-5,-9.178 2.4697,-16.454 7.4092,-21.827 4.9728,-5.4066 11.664,-8.11 20.075,-8.11 7.5426,5.8e-5 13.5,2.4364 17.872,7.309 4.4054,4.8394 6.6081,11.431 6.6082,19.774 m -9.2114,-2.7033 c -0.0668,-5.0395 -1.4852,-9.0612 -4.2553,-12.065 -2.7368,-3.0037 -6.3746,-4.5055 -10.914,-4.5056 -5.1397,5e-5 -9.2615,1.4518 -12.365,4.3554 -3.0705,2.9036 -4.8393,6.992 -5.3066,12.265 l 32.841,-0.0501" />
      <path
         id="path5245"
         d="m 627.62,109.9 v 33.842 h -9.2114 v -33.541 c -4e-5,-5.3065 -1.0347,-9.2781 -3.1038,-11.915 -2.0693,-2.6365 -5.1731,-3.9548 -9.3115,-3.9549 -4.9728,4.9e-5 -8.8944,1.5853 -11.765,4.7559 -2.8702,3.1706 -4.3053,7.4926 -4.3053,12.966 v 31.689 h -9.2614 V 87.673 h 9.2614 v 8.7108 c 2.2027,-3.3708 4.7892,-5.8906 7.7596,-7.5593 3.0037,-1.6687 6.458,-2.503 10.363,-2.5031 6.4412,5.8e-5 11.314,2.0025 14.618,6.0074 3.304,3.9716 4.9561,9.8289 4.9561,17.572" />
      <path
         id="path5247"
         d="m 694.05,113.41 v 4.5056 h -42.352 c 0.40048,6.3412 2.3028,11.18 5.7071,14.518 3.4376,3.3041 8.2101,4.9561 14.318,4.9561 3.5377,1e-5 6.9586,-0.43386 10.263,-1.3016 3.3374,-0.86773 6.6415,-2.1693 9.9123,-3.9048 v 8.7108 c -3.3041,1.4017 -6.6917,2.4697 -10.163,3.204 -3.471,0.73424 -6.992,1.1014 -10.563,1.1014 -8.9444,0 -16.037,-2.6032 -21.276,-7.8097 -5.2064,-5.2064 -7.8097,-12.248 -7.8097,-21.126 0,-9.178 2.4697,-16.454 7.4092,-21.827 4.9728,-5.4066 11.664,-8.11 20.075,-8.11 7.5426,5.8e-5 13.5,2.4364 17.872,7.309 4.4054,4.8394 6.6081,11.431 6.6082,19.774 m -9.2114,-2.7033 c -0.0668,-5.0395 -1.4852,-9.0612 -4.2553,-12.065 -2.7368,-3.0037 -6.3746,-4.5055 -10.913,-4.5056 -5.1397,5e-5 -9.2615,1.4518 -12.365,4.3554 -3.0705,2.9036 -4.8393,6.992 -5.3066,12.265 l 32.841,-0.0501" />
      <path
         id="path5249"
         d="m 741.46,96.286 c -1.0346,-0.60069 -2.1694,-1.0346 -3.4042,-1.3016 -1.2015,-0.30032 -2.5365,-0.45051 -4.005,-0.45056 -5.2065,4.9e-5 -9.2114,1.7022 -12.015,5.1063 -2.7701,3.3709 -4.1552,8.2269 -4.1551,14.568 v 29.537 h -9.2614 v -56.069 h 9.2614 v 8.7108 c 1.9357,-3.4042 4.4555,-5.9239 7.5594,-7.5593 3.1038,-1.6687 6.8751,-2.503 11.314,-2.5031 0.63408,5.8e-5 1.335,0.05012 2.1026,0.15019 0.76758,0.06681 1.6186,0.18362 2.5532,0.35043 l 0.0501,9.4617" />
      <path
         id="path5251"
         d="m 751.22,87.676 h 9.2114 v 56.069 H 751.22 V 87.676 m 0,-21.827 h 9.2114 V 77.513 H 751.22 V 65.849" />
      <path
         id="path5253"
         d="m 820.01,89.828 v 8.6106 c -2.6033,-1.4351 -5.2232,-2.503 -7.8597,-3.204 -2.6033,-0.73419 -5.2398,-1.1013 -7.9098,-1.1014 -5.9741,5e-5 -10.613,1.9024 -13.917,5.7071 -3.3041,3.7714 -4.9561,9.0779 -4.9561,15.92 -10e-6,6.8418 1.652,12.165 4.9561,15.97 3.3041,3.7713 7.9431,5.657 13.917,5.657 2.6699,1e-5 5.3065,-0.35043 7.9098,-1.0513 2.6366,-0.73423 5.2565,-1.8189 7.8597,-3.254 v 8.5105 c -2.5699,1.2015 -5.2398,2.1026 -8.0099,2.7033 -2.7368,0.60075 -5.657,0.90112 -8.7608,0.90112 -8.4438,0 -15.152,-2.6533 -20.125,-7.9598 -4.9728,-5.3066 -7.4592,-12.465 -7.4592,-21.477 -10e-6,-9.1446 2.5031,-16.337 7.5093,-21.577 5.0395,-5.2398 11.931,-7.8597 20.676,-7.8597 2.8368,5.8e-5 5.6069,0.30043 8.3103,0.90112 2.7033,0.56742 5.3232,1.4352 7.8597,2.6032" />
      <path
         id="path5255"
         d="m 868.57,65.849 h 9.2114 v 77.896 H 868.57 V 65.849" />
      <path
         id="path5257"
         d="m 918.73,94.134 c -4.9395,5e-5 -8.8443,1.9358 -11.714,5.8072 -2.8702,3.8381 -4.3053,9.1113 -4.3053,15.82 -10e-6,6.7083 1.4184,11.998 4.2553,15.87 2.8702,3.8381 6.7917,5.7571 11.765,5.7571 4.906,1e-5 8.7942,-1.9357 11.664,-5.8072 2.8702,-3.8714 4.3053,-9.1446 4.3053,-15.82 -5e-5,-6.6415 -1.4352,-11.898 -4.3053,-15.769 -2.8703,-3.9048 -6.7584,-5.8572 -11.664,-5.8572 m 0,-7.8097 c 8.0099,5.8e-5 14.301,2.6033 18.873,7.8097 4.5723,5.2065 6.8584,12.415 6.8585,21.627 -6e-5,9.178 -2.2862,16.387 -6.8585,21.627 -4.5724,5.2064 -10.863,7.8097 -18.873,7.8097 -8.0433,0 -14.351,-2.6032 -18.923,-7.8097 -4.539,-5.2398 -6.8084,-12.449 -6.8084,-21.627 0,-9.2114 2.2695,-16.42 6.8084,-21.627 4.5723,-5.2064 10.88,-7.8096 18.923,-7.8097" />
      <path
         id="path5259"
         d="m 996.58,115.06 c -4e-5,-6.6749 -1.3851,-11.848 -4.1551,-15.519 -2.7368,-3.6712 -6.5915,-5.5068 -11.564,-5.5068 -4.9395,5e-5 -8.7942,1.8357 -11.564,5.5068 -2.7367,3.6712 -4.1051,8.8443 -4.1051,15.519 -2e-5,6.6416 1.3683,11.798 4.1051,15.469 2.7701,3.6712 6.6248,5.5068 11.564,5.5068 4.9728,1e-5 8.8276,-1.8356 11.564,-5.5068 2.77,-3.6712 4.1551,-8.8276 4.1551,-15.469 m 9.2114,21.727 c -10e-5,9.5451 -2.1193,16.637 -6.3579,21.276 -4.2386,4.6724 -10.73,7.0086 -19.474,7.0087 -3.2374,-2e-5 -6.2911,-0.25033 -9.1613,-0.75093 -2.8702,-0.46727 -5.657,-1.2015 -8.3603,-2.2027 v -8.9611 c 2.7033,1.4685 5.3733,2.5532 8.0099,3.254 2.6366,0.70085 5.3232,1.0513 8.06,1.0513 6.0408,-2e-5 10.563,-1.5853 13.567,-4.7559 3.0037,-3.1372 4.5055,-7.8931 4.5056,-14.268 v -4.5556 c -1.9024,3.3041 -4.3387,5.7738 -7.309,7.4092 -2.9704,1.6354 -6.5248,2.453 -10.663,2.453 -6.8752,0 -12.415,-2.6199 -16.621,-7.8597 -4.2052,-5.2398 -6.3078,-12.182 -6.3078,-20.826 0,-8.6774 2.1026,-15.636 6.3078,-20.876 4.2052,-5.2398 9.7454,-7.8597 16.621,-7.8597 4.1384,5.8e-5 7.6928,0.81774 10.663,2.453 2.9703,1.6354 5.4066,4.1051 7.309,7.4092 v -8.5105 h 9.2114 v 49.111" />
      <path
         id="path5261"
         d="m 1046.5,94.134 c -4.9395,5e-5 -8.8443,1.9358 -11.714,5.8072 -2.8703,3.8381 -4.3054,9.1113 -4.3054,15.82 0,6.7083 1.4184,11.998 4.2553,15.87 2.8702,3.8381 6.7917,5.7571 11.765,5.7571 4.906,1e-5 8.7941,-1.9357 11.664,-5.8072 2.8701,-3.8714 4.3053,-9.1446 4.3053,-15.82 0,-6.6415 -1.4352,-11.898 -4.3053,-15.769 -2.8703,-3.9048 -6.7584,-5.8572 -11.664,-5.8572 m 0,-7.8097 c 8.0098,5.8e-5 14.301,2.6033 18.873,7.8097 4.5723,5.2065 6.8584,12.415 6.8585,21.627 -1e-4,9.178 -2.2862,16.387 -6.8585,21.627 -4.5724,5.2064 -10.864,7.8097 -18.873,7.8097 -8.0434,0 -14.351,-2.6032 -18.924,-7.8097 -4.5389,-5.2398 -6.8084,-12.449 -6.8084,-21.627 0,-9.2114 2.2695,-16.42 6.8084,-21.627 4.5724,-5.2064 10.88,-7.8096 18.924,-7.8097" />
    </g>
  </g>
  <metadata
     id="metadata32">
    <rdf:RDF>
      <cc:Work>
        <dc:format>image/svg+xml</dc:format>
        <dc:type
           rdf:resource="http://purl.org/dc/dcmitype/StillImage" />
        <cc:license
           rdf:resource="http://creativecommons.org/publicdomain/zero/1.0/" />
        <dc:publisher>
          <cc:Agent
             rdf:about="http://openclipart.org/">
            <dc:title>Openclipart</dc:title>
          </cc:Agent>
        </dc:publisher>
        <dc:date>2010-08-03T00:39:17</dc:date>
        <dc:description>generic example of a logo</dc:description>
        <dc:source>https://openclipart.org/detail/76573/generic-logo-by-shokunin</dc:source>
        <dc:creator>
          <cc:Agent>
            <dc:title>shokunin</dc:title>
          </cc:Agent>
        </dc:creator>
        <dc:subject>
          <rdf:Bag>
            <rdf:li>company</rdf:li>
            <rdf:li>logo</rdf:li>
            <rdf:li>logotyp</rdf:li>
            <rdf:li>sign</rdf:li>
            <rdf:li>trademark</rdf:li>
            <rdf:li>your company</rdf:li>
          </rdf:Bag>
        </dc:subject>
      </cc:Work>
      <cc:License
         rdf:about="http://creativecommons.org/publicdomain/zero/1.0/">
        <cc:permits
           rdf:resource="http://creativecommons.org/ns#Reproduction" />
        <cc:permits
           rdf:resource="http://creativecommons.org/ns#Distribution" />
        <cc:permits
           rdf:resource="http://creativecommons.org/ns#DerivativeWorks" />
      </cc:License>
    </rdf:RDF>
  </metadata>
</svg>
