<?xml version="1.0" encoding="UTF-8" standalone="no"?>
<svg viewBox="0 0 400 400" version="1.1" id="svg32" xmlns="http://www.w3.org/2000/svg"
  xmlns:svg="http://www.w3.org/2000/svg">

  <style>
    /* The animation code*/
    @keyframes blink {
      0% {
        ry: 10;
      }

      38% {
        ry: 10;
      }

      39% {
        ry: 0;
      }

      40% {
        ry: 10;
      }

      98% {
        ry: 10;
      }

      99% {
        ry: 0;
      }

      100% {
        ry: 10;
      }
    }

    .eye {
      animation-name: blink;
      animation-duration: 5s;
      animation-iteration-count: infinite;
      transform-origin: center 9rem;
    }
  </style>
  <ellipse cx="200" cy="217.8" fill="#32bbec" rx="182.4" ry="179.8" id="ellipse4" />
  <path fill="#edb98a"
    d="M183 34.2a67.8 67.8 0 0 0-68 69l1.5 75c.7 38.2 28.8 67 66.4 67h33a68.2 68.2 0 0 0 67.9-68.9l1.9-47-2-26.2c-2.7-38-30.2-69-67.9-69ZM286.5 124c-1 .2-1 3.6-1.3 28.1-.3 31.9-.6 30.3 5.2 26.4 3.8-2.6 6.8-6.6 7.8-10.3 1-4 1-28.9 0-32.2-1.7-4.9-7-10.7-11.2-12h-.5zm-174 .4c-2.6 0-9.6 7.4-10.7 11.4-1.2 3.9-1.3 28.4-.2 32.4 1 3.7 4 7.7 7.8 10.3 5.8 4 7 7.4 6.7-24l-1.8-30.1z"
    id="path6" />
  <path fill="#edb98a"
    d="M218.6 313.5c14.7-3.5 27.2-11.9 32-21.5 2-4.4 2.4-5.9 2.2-10.4l-.3-5.2-7.3-.5-7.4-.4-.2-8.1c-.2-11.5-.5-16-1-16L225 254c-8 1.8-14 2.7-22.1 3a70 70 0 0 1-22.5-1.8 173.3 173.3 0 0 1-18.2-4.5c-.5 0-.9 4.6-1.1 17.2l-.2 8.1h-13.3l-.4 3.1c-.9 7.7 1.9 14.3 8.9 21.2 13.5 13.4 39.1 18.8 62.4 13.3z"
    id="path8" />
  <path fill="#c69b73" d="M216.4 175.8a16.4 16.1 0 0 1-8.2 14 16.4 16.1 0 0 1-16.4 0 16.4 16.1 0 0 1-8.2-14"
    id="path10" />
  <path fill="#3c4f5c"
    d="M200 397.5c-58.3 0-110.8-26.5-142-66.8a141.5 141.5 0 0 1 89.7-54.8c-.2 26 33 36.8 53.1 36.7 27.3-.2 51.5-11.2 51.7-36.2 38.5 7.4 71.5 24 88.4 55.6-29.7 38.5-82.6 65.5-140.9 65.5Z"
    id="path12" />
  <ellipse class="eye" fill="#5e4a37" cx="160" cy="140" rx="10" ry="10" />
  <ellipse class="eye" fill="#5e4a37" cx="240" cy="140" rx="10" ry="10" />
  <path fill="#5e4a37"
    d="m 234.5,105.7 c -11.2,0 -13,1.6 -13,4.6 0,2.2 2.4,3 5.9,2.2 10.2,-2.3 24.2,1 31.5,7.5 4.1,3.8 6.7,4.4 7.5,2 1.1,-3.6 -7,-10.4 -15.9,-13.5 -4.4,-1.5 -7,-2.8 -16,-2.8 z"
    id="path18" />
  <path fill="#5e4a37"
    d="m 165.5,105.7 c -9,0 -11.6,1.3 -16,2.8 -9,3 -17,10 -15.9,13.5 0.8,2.4 3.4,1.8 7.5,-2 a 39.1,39.1 0 0 1 31.5,-7.5 c 3.5,0.9 6,0 6,-2.2 0,-3 -2,-4.6 -13,-4.6 z"
    id="path20" />
  <path fill="#c69b73" d="M237.6 252.1a37.9 36.3 0 0 1-19 31.4 37.9 36.3 0 0 1-37.9 0 37.9 36.3 0 0 1-18.9-31.4"
    id="path22" />
  <path fill="#4a312c"
    d="M228.3 2.8c-.8 0-1.8.4-3 1-8.6 4.1-15.8 5.7-35 7.9l-18.2 2.4a71.6 71.6 0 0 0-51.4 37.1c-6.6 13.7-9.3 28.5-9.3 51 0 13.1.8 21.3 2.3 23.1.5.7 1 11.6 1.2 30.2.2 16 .6 31.4.8 34a86 86 0 0 0 24.8 49.2 92.6 92.6 0 0 0 48.6 21 68 68 0 0 0 23.8 0c23.5-3.5 38.6-10.6 51.2-23.9a78.3 78.3 0 0 0 17.9-29.4c3.9-10.9 4.3-15.2 4.7-53 .3-19.3.9-38 1.4-41.7a218 218 0 0 0-1.3-42.4 60 60 0 0 0-27.2-42.8c-3.7-2.8-7-5.6-7.2-6.3-.2-.7.1-2.7.8-4.6 1.4-4.1 1.5-7 .1-7-.5 0-4 1-7.5 2.3-5.6 2-6.4 2.2-6 1 .4-.8.8-2.4 1-3.5.4-1.9.2-2.2-1.2-2.2-1 0-4.1 1.2-7.1 2.8-3 1.5-5.5 2.4-5.5 2.1 0-.3.7-1.6 1.6-3 2.3-3.5 2-5.5-.3-5.3zm11.6 44.6c3.5 0 4.1 1.2 7 4.5 2.2 2.6 6.9 7.2 10.5 10.2 9.2 7.7 12.2 11 15.2 16.8a69 69 0 0 1 7.1 25.8c1.5 11.5 3.1 19 4.7 21.5.9 1.4.9 2.4 0 6.2a188 188 0 0 0-2 23.4c-1 27.7-3 35.7-11.2 43.8-8.3 8.4-20.6 13-24 9.1-.7-.7-2.4-4.2-3.8-7.8a29.6 29.6 0 0 0-5-8.9 35 35 0 0 0-16.6-7.6 55 55 0 0 0-19.4 1.3c-1.2.6-2 .6-3.1 0a53.6 53.6 0 0 0-19.5-1.3 35 35 0 0 0-16.6 7.6c-1.5 1.5-3.5 5-5 9-1.3 3.5-3 7-3.7 7.7-3.4 4-15.7-.7-24-9-8.1-8.2-10.2-16.3-11.3-43.5-.4-12.1-1-20.3-2-24-.9-4-1-6-.4-7.1a71 71 0 0 0 2-9.6C121.8 94 128.3 77 137 68l10.8-11.6 6.6-7.2h33c21.8 0 36-.3 42-1 5.3-.5 8.4-1 10.5-.9zm-39 147a34.6 34.6 0 0 0 12.4 1.7c10.7 0 15 1 18.5 4.7a25.3 25.3 0 0 1 6.1 15.4c0 9.8-12 23.6-20.5 23.6-1.6 0-3.2-.5-3.8-1.3-.6-.7-2.6-2.3-4.5-3.5a12.4 12.4 0 0 0-8.3-2.2c-3.9 0-5.4.4-8.2 2.2a24 24 0 0 0-4.6 3.5c-1.4 1.7-6 1.6-9.5-.3-7.5-3.9-14.8-14.8-14.8-22a25 25 0 0 1 6.2-15.4c3.4-3.6 7.7-4.7 18.7-4.8a36.3 36.3 0 0 0 12.3-1.6z"
    id="path24" />
  <path fill="#463729" d="M229.7 205.3a30 30 0 0 1-59.5-.4c0-2.4 2.4-4 4.6-3.6h51.6c2 .1 3.7 2 3.3 4z" id="path26" />
  <path fill="#fff" d="M176.6 201.2c0 4.3 3.5 7.7 7.8 7.7h31.2c4.3 0 7.7-3.4 7.8-7.7z" id="path28" />
  <path fill="#ff4f6d"
    d="M192.1 217.1a14 10.9 0 0 0-12.7 6.5l4 3a29.8 29.8 0 0 0 37.2-3.7 14.7 10.9 0 0 0-13-5.8 14.7 10.9 0 0 0-8 1.7 14 10.9 0 0 0-7.5-1.7z"
    id="path30" />
</svg>