<?xml version="1.0" encoding="UTF-8" standalone="no"?>
<svg
   id="svg8"
   version="1.1"
   viewBox="0 0 51.858349 8.2020885"
   height="31"
   width="196"
   xmlns="http://www.w3.org/2000/svg"
   xmlns:svg="http://www.w3.org/2000/svg"
   xmlns:rdf="http://www.w3.org/1999/02/22-rdf-syntax-ns#"
   xmlns:cc="http://creativecommons.org/ns#"
   xmlns:dc="http://purl.org/dc/elements/1.1/">
  <defs
     id="defs2" />
  <metadata
     id="metadata5">
    <rdf:RDF>
      <cc:Work
         rdf:about="">
        <dc:format>image/svg+xml</dc:format>
        <dc:type
           rdf:resource="http://purl.org/dc/dcmitype/StillImage" />
      </cc:Work>
    </rdf:RDF>
  </metadata>
  <g
     id="g314539"
     transform="translate(-2.6458335,-2.1166668)">
    <g
       aria-label="yoprogramo"
       id="text160909"
       style="font-size:7.65528px;line-height:1;font-family:'Encode Sans';-inkscape-font-specification:'Encode Sans, @wght=700,wdth=100.0';font-variation-settings:'wdth' 100, 'wght' 700;fill:#231f20;stroke-width:0.264583">
      <path
         d="m 9.8302645,10.01948 0.6009395,-1.6841614 0.42104,-0.9645653 1.041119,-3.222873 h 1.201878 L 11.028316,10.01948 Z M 10.094372,8.3353186 8.6245579,4.1478803 H 9.899162 l 1.328191,4.1874383 z"
         id="path746" />
      <path
         d="m 15.329817,8.415699 q -0.627733,0 -1.087049,-0.2373137 Q 13.787278,7.937244 13.538482,7.458789 13.289685,6.9765063 13.289685,6.2530824 q 0,-0.7310793 0.241142,-1.2133619 0.244968,-0.4822827 0.700458,-0.7195964 0.459316,-0.2373136 1.098532,-0.2373136 0.639216,0 1.094705,0.2411413 0.459317,0.2373137 0.700459,0.7195963 0.244968,0.478455 0.244968,1.201879 0,0.7272516 -0.248796,1.2095343 Q 16.872356,7.937244 16.413039,8.1783853 15.95755,8.415699 15.329817,8.415699 Z m 0,-0.9262889 q 0.256452,0 0.436351,-0.1110015 0.183727,-0.1110016 0.279418,-0.3789364 0.09569,-0.2717625 0.09569,-0.7425622 0,-0.4822826 -0.09569,-0.7540451 -0.09569,-0.2717624 -0.279418,-0.382764 -0.179899,-0.1148292 -0.436351,-0.1148292 -0.256452,0 -0.440178,0.1110016 -0.179899,0.1110015 -0.27559,0.382764 -0.09569,0.2679348 -0.09569,0.7425622 0,0.4822826 0.09569,0.754045 0.09569,0.2717625 0.27559,0.3827641 0.183726,0.1110015 0.440178,0.1110015 z"
         id="path748" />
      <path
         d="M 18.08954,10.01948 V 4.1478803 h 1.025808 l 0.07272,0.4478339 h 0.05742 q 0.179899,-0.233486 0.459317,-0.3712811 0.283245,-0.1416226 0.654526,-0.1416226 0.463144,0 0.853564,0.2105202 0.390419,0.2105202 0.623905,0.669837 0.237314,0.4554891 0.237314,1.1980513 0,0.7310793 -0.26028,1.2325001 -0.256452,0.5014209 -0.765528,0.7617004 -0.505248,0.2564519 -1.255466,0.2564519 -0.126312,0 -0.252624,-0.011483 -0.122484,-0.00766 -0.233486,-0.019138 V 10.01948 Z m 1.7033,-2.5338975 q 0.528215,0 0.792322,-0.2832454 0.264107,-0.2832454 0.264107,-0.9454271 0,-0.4593168 -0.107174,-0.7157687 -0.107174,-0.2564519 -0.298556,-0.3597981 -0.191382,-0.1033463 -0.444006,-0.1033463 -0.187554,0 -0.375109,0.068898 -0.183727,0.06507 -0.317694,0.2143478 v 2.074581 q 0.103346,0.019138 0.233486,0.034449 0.13014,0.015311 0.252624,0.015311 z"
         id="path750" />
      <path
         d="M 22.797536,8.3353186 V 4.1478803 h 0.999014 l 0.09186,0.5396973 h 0.06124 q 0.176071,-0.3100389 0.466972,-0.4516615 0.2909,-0.1454504 0.639216,-0.1454504 0.09569,0 0.183726,0.00766 0.08804,0.00766 0.156934,0.022966 v 1.1023603 q -0.09569,-0.019138 -0.206693,-0.022966 -0.107174,-0.00766 -0.206693,-0.00766 -0.179899,0 -0.363625,0.045932 -0.183727,0.042104 -0.34066,0.1339674 -0.156934,0.088036 -0.264108,0.2181754 v 2.744418 z"
         id="path752" />
      <path
         d="m 27.705051,8.415699 q -0.627733,0 -1.087049,-0.2373137 Q 26.162513,7.937244 25.913716,7.458789 25.664919,6.9765063 25.664919,6.2530824 q 0,-0.7310793 0.241142,-1.2133619 0.244969,-0.4822827 0.700458,-0.7195964 0.459317,-0.2373136 1.098532,-0.2373136 0.639216,0 1.094706,0.2411413 0.459316,0.2373137 0.700458,0.7195963 0.244969,0.478455 0.244969,1.201879 0,0.7272516 -0.248797,1.2095343 Q 29.24759,7.937244 28.788274,8.1783853 28.332784,8.415699 27.705051,8.415699 Z m 0,-0.9262889 q 0.256452,0 0.436351,-0.1110015 0.183727,-0.1110016 0.279418,-0.3789364 0.09569,-0.2717625 0.09569,-0.7425622 0,-0.4822826 -0.09569,-0.7540451 -0.09569,-0.2717624 -0.279418,-0.382764 -0.179899,-0.1148292 -0.436351,-0.1148292 -0.256451,0 -0.440178,0.1110016 -0.179899,0.1110015 -0.27559,0.382764 -0.09569,0.2679348 -0.09569,0.7425622 0,0.4822826 0.09569,0.754045 0.09569,0.2717625 0.27559,0.3827641 0.183727,0.1110015 0.440178,0.1110015 z"
         id="path754" />
      <path
         d="m 32.034875,10.096033 q -0.333005,0 -0.696631,-0.0421 -0.363626,-0.03828 -0.704286,-0.1301398 V 8.9707068 q 0.352143,0.095691 0.685148,0.1416227 0.333005,0.045932 0.620078,0.045932 0.612422,0 0.888012,-0.2296584 0.279418,-0.2296584 0.279418,-0.765528 V 7.8874847 h -0.05741 Q 32.8693,8.1094878 32.59371,8.2357999 32.321948,8.362112 31.965977,8.362112 31.537281,8.362112 31.166,8.1477642 30.794719,7.9295887 30.565061,7.4817548 30.33923,7.0300933 30.33923,6.3258075 q 0,-1.0832221 0.589457,-1.6611957 0.589456,-0.5818013 1.787507,-0.5818013 0.267935,0 0.551181,0.026793 0.287073,0.026794 0.558835,0.080381 0.271763,0.049759 0.501421,0.1263121 v 3.6247751 q 0,1.1368091 -0.566491,1.6458853 -0.566491,0.5090761 -1.726265,0.5090761 z m 0.394246,-2.7252797 q 0.183727,0 0.363626,-0.061242 0.179899,-0.06507 0.313867,-0.191382 V 5.0588587 q -0.09952,-0.022966 -0.229659,-0.038276 -0.126312,-0.015311 -0.267934,-0.015311 -0.505249,0 -0.773184,0.2832454 -0.267935,0.2794177 -0.267935,0.9339442 0,0.4440062 0.107174,0.6966304 0.107174,0.2487966 0.298556,0.3521429 0.19521,0.099519 0.455489,0.099519 z"
         id="path756" />
      <path
         d="M 35.238606,8.3353186 V 4.1478803 h 0.999015 l 0.09186,0.5396973 h 0.06124 q 0.176072,-0.3100389 0.466972,-0.4516615 0.290901,-0.1454504 0.639216,-0.1454504 0.09569,0 0.183727,0.00766 0.08804,0.00766 0.156933,0.022966 v 1.1023603 q -0.09569,-0.019138 -0.206693,-0.022966 -0.107173,-0.00766 -0.206692,-0.00766 -0.179899,0 -0.363626,0.045932 -0.183727,0.042104 -0.34066,0.1339674 -0.156933,0.088036 -0.264107,0.2181754 v 2.744418 z"
         id="path758" />
      <path
         d="m 39.34376,8.4118714 q -0.643043,0 -1.002841,-0.3330047 -0.355971,-0.3368323 -0.355971,-0.8765296 0,-0.5932842 0.409558,-0.9262889 0.413385,-0.3330047 1.332018,-0.3942469 l 0.880358,-0.072725 0.130139,0.6736647 -0.888012,0.072725 q -0.352143,0.026794 -0.509076,0.1607609 -0.153106,0.1339674 -0.153106,0.3674535 0,0.2296584 0.141623,0.3559705 0.141623,0.1224845 0.413385,0.1224845 0.168416,0 0.344488,-0.057415 0.176071,-0.061242 0.321521,-0.2066926 v -1.531056 q 0,-0.287073 -0.09569,-0.4516615 -0.09186,-0.1645886 -0.302383,-0.2334861 -0.206693,-0.072725 -0.555008,-0.072725 -0.241141,0 -0.547353,0.042104 -0.306211,0.038276 -0.585629,0.1263121 V 4.2588819 q 0.306212,-0.088036 0.669837,-0.1301398 0.367454,-0.045932 0.68132,-0.045932 0.66601,0 1.090878,0.1645885 0.428696,0.1645885 0.63156,0.5511802 0.202865,0.382764 0.202865,1.0449457 v 2.4917937 h -1.002841 l -0.08421,-0.4172128 h -0.05741 Q 40.266222,8.1745577 39.975321,8.2932145 39.68442,8.4118714 39.34376,8.4118714 Z"
         id="path760" />
      <path
         d="M 42.474771,8.3353186 V 4.1478803 h 1.006669 l 0.08038,0.4286957 h 0.05742 q 0.222003,-0.2449689 0.516731,-0.3674534 0.298556,-0.1263121 0.658354,-0.1263121 0.371282,0 0.66601,0.1607608 0.298556,0.1569333 0.466972,0.5129038 0.172244,0.3521429 0.172244,0.9339442 v 2.6448993 h -1.194224 v -2.541553 q 0,-0.3751088 -0.141623,-0.5167314 -0.137795,-0.1454504 -0.382764,-0.1454504 -0.122484,0 -0.252624,0.038276 -0.126312,0.038276 -0.241141,0.1148292 -0.111002,0.076553 -0.19521,0.1952097 v 2.8554195 z m 4.811343,0 v -2.541553 q 0,-0.3751088 -0.153105,-0.5167314 -0.153106,-0.1454504 -0.394247,-0.1454504 -0.133968,0 -0.267935,0.042104 -0.13014,0.038276 -0.248797,0.1224845 -0.118657,0.084208 -0.206692,0.2181754 L 45.774196,4.7220264 q 0.279418,-0.34066 0.631561,-0.489938 0.352143,-0.1492779 0.708113,-0.1492779 0.401903,0 0.715769,0.1607608 0.313866,0.1607609 0.493766,0.5243867 0.179899,0.3636258 0.179899,0.9607377 v 2.6066229 z"
         id="path762" />
      <path
         d="m 51.228588,8.415699 q -0.627733,0 -1.08705,-0.2373137 Q 49.686049,7.937244 49.437253,7.458789 49.188456,6.9765063 49.188456,6.2530824 q 0,-0.7310793 0.241141,-1.2133619 0.244969,-0.4822827 0.700458,-0.7195964 0.459317,-0.2373136 1.098533,-0.2373136 0.639216,0 1.094705,0.2411413 0.459317,0.2373137 0.700458,0.7195963 0.244969,0.478455 0.244969,1.201879 0,0.7272516 -0.248796,1.2095343 Q 52.771127,7.937244 52.31181,8.1783853 51.856321,8.415699 51.228588,8.415699 Z m 0,-0.9262889 q 0.256452,0 0.436351,-0.1110015 0.183727,-0.1110016 0.279418,-0.3789364 0.09569,-0.2717625 0.09569,-0.7425622 0,-0.4822826 -0.09569,-0.7540451 -0.09569,-0.2717624 -0.279418,-0.382764 -0.179899,-0.1148292 -0.436351,-0.1148292 -0.256452,0 -0.440178,0.1110016 -0.1799,0.1110015 -0.275591,0.382764 -0.09569,0.2679348 -0.09569,0.7425622 0,0.4822826 0.09569,0.754045 0.09569,0.2717625 0.275591,0.3827641 0.183726,0.1110015 0.440178,0.1110015 z"
         id="path764" />
    </g>
    <g
       aria-label="#"
       id="text160913"
       style="font-size:7.65528px;line-height:1;font-family:'Encode Sans';-inkscape-font-specification:'Encode Sans, @wght=700,wdth=100.0';font-variation-settings:'wdth' 100, 'wght' 700;fill:#31bbec;stroke-width:0.264583">
      <path
         d="M 6.0199417,9.011754 6.6093982,3.3468468 H 7.5471701 L 6.9577135,9.011754 Z M 3.9606713,7.5074915 V 6.5850302 H 7.9950039 V 7.5074915 Z M 4.4085052,9.011754 4.9979618,3.3468468 H 5.9357336 L 5.346277,9.011754 Z M 3.9606713,5.7735705 V 4.8511093 h 4.0343326 v 0.9224612 z"
         id="path767" />
    </g>
  </g>
</svg>
